{"glyphs":{"0":{"ha":997,"x_min":0,"x_max":0,"o":"m 50 511 b 499 -18 50 193 217 -18 b 947 511 781 -18 947 193 b 499 1047 947 829 767 1047 b 50 511 231 1047 50 829 z m 272 511 b 499 850 272 739 356 850 b 725 511 642 850 725 739 b 499 179 725 290 642 179 b 272 511 356 179 272 290 z "},"1":{"ha":607,"x_min":0,"x_max":0,"o":"m 281 826 l 281 0 l 496 0 l 496 1028 l 47 1028 l 47 826 z "},"2":{"ha":840,"x_min":0,"x_max":0,"o":"m 799 3 l 799 211 l 424 211 l 578 340 b 790 701 706 447 790 561 b 415 1047 790 921 650 1047 b 42 667 189 1047 42 897 l 265 667 b 417 847 265 782 321 847 b 560 688 508 847 560 792 b 404 449 560 603 514 539 l 65 167 l 65 0 z "},"3":{"ha":792,"x_min":0,"x_max":0,"o":"m 364 483 b 532 332 485 483 532 414 b 385 181 532 240 472 181 b 233 336 294 181 233 235 l 11 336 b 379 -18 11 104 179 -18 b 763 331 588 -18 763 114 b 511 658 763 506 650 617 l 728 849 l 728 1028 l 58 1028 l 58 831 l 446 831 l 222 635 b 214 628 219 632 217 631 l 214 483 z "},"4":{"ha":913,"x_min":0,"x_max":0,"o":"m 878 182 l 878 379 l 751 379 l 751 1028 l 471 1028 l 28 379 l 28 182 l 539 182 l 539 0 l 751 0 l 751 182 z m 267 379 l 539 779 l 539 379 z "},"5":{"ha":849,"x_min":0,"x_max":0,"o":"m 414 -17 b 814 369 651 -17 814 139 b 475 710 814 578 675 710 b 311 669 413 710 356 696 l 351 819 l 749 819 l 749 1028 l 190 1028 l 61 476 l 267 438 b 424 524 292 488 354 524 b 583 356 525 524 583 461 b 419 182 583 247 521 182 b 268 338 325 182 268 240 l 46 338 b 414 -17 46 125 193 -17 z "},"6":{"ha":875,"x_min":0,"x_max":0,"o":"m 213 751 b 42 361 88 581 42 488 b 440 -18 42 146 210 -18 b 833 360 668 -18 833 135 b 478 717 833 571 689 717 b 436 713 464 717 450 715 l 671 1028 l 414 1028 z m 272 358 b 440 535 272 464 339 535 b 606 358 539 535 606 464 b 440 181 606 253 538 181 b 272 358 340 181 272 253 z "},"7":{"ha":776,"x_min":0,"x_max":0,"o":"m 7 1028 l 7 819 l 543 819 l 182 0 l 415 0 l 769 819 l 769 1028 z "},"8":{"ha":915,"x_min":0,"x_max":0,"o":"m 50 297 b 457 -17 50 104 207 -17 b 865 299 707 -17 865 106 b 697 554 865 418 800 515 b 828 761 782 592 828 665 b 460 1047 828 933 681 1047 b 88 764 239 1047 88 932 b 214 556 88 668 132 596 b 50 297 114 515 50 417 z m 290 742 b 456 857 290 813 354 857 b 621 742 557 857 621 813 b 456 629 621 672 557 629 b 290 742 354 629 290 672 z m 271 313 b 457 446 271 396 342 446 b 643 313 572 446 643 396 b 457 181 643 229 574 181 b 271 313 340 181 271 229 z "},"9":{"ha":875,"x_min":0,"x_max":0,"o":"m 663 276 b 833 667 788 447 833 540 b 435 1046 833 882 665 1046 b 42 668 207 1046 42 893 b 397 311 42 457 186 311 b 439 315 411 311 425 313 l 204 0 l 461 0 z m 603 669 b 435 493 603 564 536 493 b 269 669 336 493 269 564 b 435 847 269 775 338 847 b 603 669 535 847 603 775 z "},"A":{"ha":976,"x_min":0,"x_max":0,"o":"m 247 0 l 321 217 l 653 217 l 725 0 l 964 0 l 599 1028 l 379 1028 l 13 0 z m 460 625 b 488 725 472 663 483 701 b 515 625 492 700 504 660 l 589 406 l 386 406 z "},"Á":{"ha":976,"x_min":0,"x_max":0,"o":"m 722 1329 l 531 1329 l 414 1099 l 568 1099 z m 247 0 l 321 217 l 653 217 l 725 0 l 964 0 l 599 1028 l 379 1028 l 13 0 z m 460 625 b 488 725 472 663 483 701 b 515 625 492 700 504 660 l 589 406 l 386 406 z "},"Ă":{"ha":976,"x_min":0,"x_max":0,"o":"m 588 1332 b 493 1224 588 1264 553 1224 b 397 1332 432 1224 397 1263 l 246 1332 b 493 1085 246 1179 340 1085 b 738 1332 642 1085 738 1181 z m 247 0 l 321 217 l 653 217 l 725 0 l 964 0 l 599 1028 l 379 1028 l 13 0 z m 460 625 b 488 725 472 663 483 701 b 515 625 492 700 504 660 l 589 406 l 386 406 z "},"Â":{"ha":976,"x_min":0,"x_max":0,"o":"m 413 1099 l 492 1244 l 571 1099 l 732 1099 l 594 1343 l 389 1343 l 251 1099 z m 247 0 l 321 217 l 653 217 l 725 0 l 964 0 l 599 1028 l 379 1028 l 13 0 z m 460 625 b 488 725 472 663 483 701 b 515 625 492 700 504 660 l 589 406 l 386 406 z "},"Ä":{"ha":976,"x_min":0,"x_max":0,"o":"m 354 1108 b 461 1217 413 1108 461 1157 b 354 1324 461 1274 413 1324 b 247 1217 296 1324 247 1275 b 354 1108 247 1156 294 1108 z m 629 1108 b 736 1217 688 1108 736 1157 b 629 1324 736 1274 688 1324 b 522 1217 571 1324 522 1275 b 629 1108 522 1156 569 1108 z m 247 0 l 321 217 l 653 217 l 725 0 l 964 0 l 599 1028 l 379 1028 l 13 0 z m 460 625 b 488 725 472 663 483 701 b 515 625 492 700 504 660 l 589 406 l 386 406 z "},"À":{"ha":976,"x_min":0,"x_max":0,"o":"m 568 1099 l 451 1329 l 260 1329 l 414 1099 z m 247 0 l 321 217 l 653 217 l 725 0 l 964 0 l 599 1028 l 379 1028 l 13 0 z m 460 625 b 488 725 472 663 483 701 b 515 625 492 700 504 660 l 589 406 l 386 406 z "},"Ā":{"ha":976,"x_min":0,"x_max":0,"o":"m 290 1135 l 693 1135 l 693 1279 l 290 1279 z m 247 0 l 321 217 l 653 217 l 725 0 l 964 0 l 599 1028 l 379 1028 l 13 0 z m 460 625 b 488 725 472 663 483 701 b 515 625 492 700 504 660 l 589 406 l 386 406 z "},"Ą":{"ha":976,"x_min":0,"x_max":0,"o":"m 247 0 l 321 217 l 653 217 l 725 0 l 836 0 b 711 -161 750 -32 711 -97 b 871 -310 711 -242 772 -310 b 953 -294 901 -310 928 -306 l 953 -158 b 910 -168 938 -165 922 -168 b 851 -112 874 -168 851 -143 b 963 0 851 -74 885 -26 l 964 0 l 599 1028 l 379 1028 l 13 0 z m 460 625 b 488 725 472 663 483 701 b 515 625 492 700 504 660 l 589 406 l 386 406 z "},"Å":{"ha":976,"x_min":0,"x_max":0,"o":"m 492 1074 b 688 1267 604 1074 688 1157 b 492 1461 688 1376 603 1461 b 296 1267 381 1461 296 1376 b 492 1074 296 1154 378 1074 z m 492 1182 b 410 1269 442 1182 410 1217 b 492 1353 410 1319 443 1353 b 574 1269 540 1353 574 1318 b 492 1182 574 1217 542 1182 z m 247 0 l 321 217 l 653 217 l 725 0 l 964 0 l 599 1028 l 379 1028 l 13 0 z m 460 625 b 488 725 472 663 483 701 b 515 625 492 700 504 660 l 589 406 l 386 406 z "},"Ǻ":{"ha":976,"x_min":0,"x_max":0,"o":"m 725 1568 l 533 1568 l 417 1338 l 571 1338 z m 247 0 l 321 217 l 653 217 l 725 0 l 964 0 l 621 967 b 688 1114 663 1001 688 1053 b 492 1308 688 1224 603 1308 b 296 1114 381 1308 296 1224 b 358 968 296 1054 319 1003 l 13 0 z m 492 1029 b 410 1117 442 1029 410 1064 b 492 1200 410 1167 443 1200 b 574 1117 540 1200 574 1165 b 492 1029 574 1064 542 1029 z m 460 625 b 488 725 472 663 483 701 b 515 625 492 700 504 660 l 589 406 l 386 406 z "},"Ã":{"ha":976,"x_min":0,"x_max":0,"o":"m 347 1103 b 396 1188 347 1156 360 1188 b 610 1101 449 1188 504 1101 b 756 1326 708 1101 771 1174 l 636 1326 b 586 1240 636 1276 622 1240 b 372 1326 526 1240 474 1326 b 228 1101 271 1326 211 1238 z m 247 0 l 321 217 l 653 217 l 725 0 l 964 0 l 599 1028 l 379 1028 l 13 0 z m 460 625 b 488 725 472 663 483 701 b 515 625 492 700 504 660 l 589 406 l 386 406 z "},"Æ":{"ha":1343,"x_min":0,"x_max":0,"o":"m 6 0 l 263 0 l 350 232 l 613 232 l 613 0 l 1265 0 l 1265 208 l 838 208 l 838 421 l 1217 421 l 1217 618 l 838 618 l 838 819 l 1265 819 l 1265 1028 l 421 1028 z m 422 421 l 574 819 l 613 819 l 613 421 z "},"Ǽ":{"ha":1343,"x_min":0,"x_max":0,"o":"m 1022 1329 l 831 1329 l 714 1099 l 868 1099 z m 6 0 l 263 0 l 350 232 l 613 232 l 613 0 l 1265 0 l 1265 208 l 838 208 l 838 421 l 1217 421 l 1217 618 l 838 618 l 838 819 l 1265 819 l 1265 1028 l 421 1028 z m 422 421 l 574 819 l 613 819 l 613 421 z "},"B":{"ha":924,"x_min":0,"x_max":0,"o":"m 107 0 l 535 0 b 879 283 757 0 879 101 b 724 513 879 400 825 479 b 867 743 817 553 867 633 b 535 1028 867 919 742 1028 l 107 1028 z m 511 831 b 636 721 593 831 636 793 b 511 607 636 647 592 607 l 332 607 l 332 831 z m 522 418 b 649 311 604 418 649 381 b 522 197 649 235 606 197 l 332 197 l 332 418 z "},"C":{"ha":1079,"x_min":0,"x_max":0,"o":"m 551 -17 b 1036 364 808 -17 1000 135 l 803 364 b 556 200 775 263 682 200 b 288 514 390 200 288 321 b 556 828 288 710 389 828 b 797 667 679 828 767 769 l 1035 667 b 561 1044 1003 897 818 1044 b 50 513 254 1044 50 833 b 551 -17 50 188 243 -17 z "},"Ć":{"ha":1079,"x_min":0,"x_max":0,"o":"m 789 1329 l 597 1329 l 481 1099 l 635 1099 z m 551 -17 b 1036 364 808 -17 1000 135 l 803 364 b 556 200 775 263 682 200 b 288 514 390 200 288 321 b 556 828 288 710 389 828 b 797 667 679 828 767 769 l 1035 667 b 561 1044 1003 897 818 1044 b 50 513 254 1044 50 833 b 551 -17 50 188 243 -17 z "},"Č":{"ha":1079,"x_min":0,"x_max":0,"o":"m 456 1099 l 661 1099 l 799 1343 l 638 1343 l 558 1197 l 479 1343 l 318 1343 z m 551 -17 b 1036 364 808 -17 1000 135 l 803 364 b 556 200 775 263 682 200 b 288 514 390 200 288 321 b 556 828 288 710 389 828 b 797 667 679 828 767 769 l 1035 667 b 561 1044 1003 897 818 1044 b 50 513 254 1044 50 833 b 551 -17 50 188 243 -17 z "},"Ç":{"ha":1079,"x_min":0,"x_max":0,"o":"m 438 -296 b 550 -322 468 -311 501 -322 b 726 -176 649 -322 726 -271 b 606 -58 726 -90 661 -58 b 556 -67 586 -58 569 -61 l 582 -15 b 1036 364 824 -4 1001 144 l 803 364 b 556 200 775 263 682 200 b 288 514 390 200 288 321 b 556 828 288 710 389 828 b 797 667 679 828 767 769 l 1035 667 b 561 1044 1003 897 818 1044 b 50 513 254 1044 50 833 b 501 -15 50 206 222 6 l 468 -85 l 488 -139 b 556 -128 507 -132 528 -128 b 617 -176 594 -128 617 -146 b 539 -233 617 -210 593 -233 b 438 -207 500 -233 472 -222 z "},"Ĉ":{"ha":1079,"x_min":0,"x_max":0,"o":"m 479 1099 l 558 1244 l 638 1099 l 799 1099 l 661 1343 l 456 1343 l 318 1099 z m 551 -17 b 1036 364 808 -17 1000 135 l 803 364 b 556 200 775 263 682 200 b 288 514 390 200 288 321 b 556 828 288 710 389 828 b 797 667 679 828 767 769 l 1035 667 b 561 1044 1003 897 818 1044 b 50 513 254 1044 50 833 b 551 -17 50 188 243 -17 z "},"Ċ":{"ha":1079,"x_min":0,"x_max":0,"o":"m 557 1108 b 671 1222 619 1108 671 1160 b 557 1336 671 1283 619 1336 b 444 1222 496 1336 444 1285 b 557 1108 444 1158 494 1108 z m 551 -17 b 1036 364 808 -17 1000 135 l 803 364 b 556 200 775 263 682 200 b 288 514 390 200 288 321 b 556 828 288 710 389 828 b 797 667 679 828 767 769 l 1035 667 b 561 1044 1003 897 818 1044 b 50 513 254 1044 50 833 b 551 -17 50 188 243 -17 z "},"D":{"ha":1057,"x_min":0,"x_max":0,"o":"m 510 0 b 1007 511 803 0 1007 211 b 496 1028 1007 817 797 1028 l 107 1028 l 107 0 z m 474 819 b 769 511 660 819 769 706 b 488 208 769 321 665 208 l 332 208 l 332 819 z "},"Ð":{"ha":1057,"x_min":0,"x_max":0,"o":"m 14 424 l 107 424 l 107 0 l 510 0 b 1007 511 803 0 1007 211 b 496 1028 1007 817 797 1028 l 107 1028 l 107 606 l 14 606 z m 533 424 l 533 606 l 332 606 l 332 819 l 474 819 b 769 511 660 819 769 706 b 488 208 769 321 665 208 l 332 208 l 332 424 z "},"Ď":{"ha":1057,"x_min":0,"x_max":0,"o":"m 361 1099 l 567 1099 l 704 1343 l 543 1343 l 464 1197 l 385 1343 l 224 1343 z m 510 0 b 1007 511 803 0 1007 211 b 496 1028 1007 817 797 1028 l 107 1028 l 107 0 z m 474 819 b 769 511 660 819 769 706 b 488 208 769 321 665 208 l 332 208 l 332 819 z "},"Đ":{"ha":1057,"x_min":0,"x_max":0,"o":"m 14 424 l 107 424 l 107 0 l 510 0 b 1007 511 803 0 1007 211 b 496 1028 1007 817 797 1028 l 107 1028 l 107 606 l 14 606 z m 533 424 l 533 606 l 332 606 l 332 819 l 474 819 b 769 511 660 819 769 706 b 488 208 769 321 665 208 l 332 208 l 332 424 z "},"E":{"ha":838,"x_min":0,"x_max":0,"o":"m 760 0 l 760 208 l 332 208 l 332 421 l 711 421 l 711 618 l 332 618 l 332 819 l 760 819 l 760 1028 l 107 1028 l 107 0 z "},"É":{"ha":838,"x_min":0,"x_max":0,"o":"m 664 1329 l 472 1329 l 356 1099 l 510 1099 z m 760 0 l 760 208 l 332 208 l 332 421 l 711 421 l 711 618 l 332 618 l 332 819 l 760 819 l 760 1028 l 107 1028 l 107 0 z "},"Ĕ":{"ha":838,"x_min":0,"x_max":0,"o":"m 529 1332 b 435 1224 529 1264 494 1224 b 339 1332 374 1224 339 1263 l 188 1332 b 435 1085 188 1179 282 1085 b 679 1332 583 1085 679 1181 z m 760 0 l 760 208 l 332 208 l 332 421 l 711 421 l 711 618 l 332 618 l 332 819 l 760 819 l 760 1028 l 107 1028 l 107 0 z "},"Ě":{"ha":838,"x_min":0,"x_max":0,"o":"m 331 1099 l 536 1099 l 674 1343 l 513 1343 l 433 1197 l 354 1343 l 193 1343 z m 760 0 l 760 208 l 332 208 l 332 421 l 711 421 l 711 618 l 332 618 l 332 819 l 760 819 l 760 1028 l 107 1028 l 107 0 z "},"Ê":{"ha":838,"x_min":0,"x_max":0,"o":"m 354 1099 l 433 1244 l 513 1099 l 674 1099 l 536 1343 l 331 1343 l 193 1099 z m 760 0 l 760 208 l 332 208 l 332 421 l 711 421 l 711 618 l 332 618 l 332 819 l 760 819 l 760 1028 l 107 1028 l 107 0 z "},"Ë":{"ha":838,"x_min":0,"x_max":0,"o":"m 296 1108 b 403 1217 354 1108 403 1157 b 296 1324 403 1274 354 1324 b 189 1217 238 1324 189 1275 b 296 1108 189 1156 236 1108 z m 571 1108 b 678 1217 629 1108 678 1157 b 571 1324 678 1274 629 1324 b 464 1217 513 1324 464 1275 b 571 1108 464 1156 511 1108 z m 760 0 l 760 208 l 332 208 l 332 421 l 711 421 l 711 618 l 332 618 l 332 819 l 760 819 l 760 1028 l 107 1028 l 107 0 z "},"Ė":{"ha":838,"x_min":0,"x_max":0,"o":"m 432 1108 b 546 1222 494 1108 546 1160 b 432 1336 546 1283 494 1336 b 319 1222 371 1336 319 1285 b 432 1108 319 1158 369 1108 z m 760 0 l 760 208 l 332 208 l 332 421 l 711 421 l 711 618 l 332 618 l 332 819 l 760 819 l 760 1028 l 107 1028 l 107 0 z "},"È":{"ha":838,"x_min":0,"x_max":0,"o":"m 510 1099 l 393 1329 l 201 1329 l 356 1099 z m 760 0 l 760 208 l 332 208 l 332 421 l 711 421 l 711 618 l 332 618 l 332 819 l 760 819 l 760 1028 l 107 1028 l 107 0 z "},"Ē":{"ha":838,"x_min":0,"x_max":0,"o":"m 232 1135 l 635 1135 l 635 1279 l 232 1279 z m 760 0 l 760 208 l 332 208 l 332 421 l 711 421 l 711 618 l 332 618 l 332 819 l 760 819 l 760 1028 l 107 1028 l 107 0 z "},"Ę":{"ha":838,"x_min":0,"x_max":0,"o":"m 632 0 b 507 -161 546 -32 507 -97 b 667 -310 507 -242 568 -310 b 749 -294 697 -310 724 -306 l 749 -158 b 706 -168 733 -165 718 -168 b 647 -112 669 -168 647 -143 b 758 0 647 -74 681 -26 l 760 0 l 760 208 l 332 208 l 332 421 l 711 421 l 711 618 l 332 618 l 332 819 l 760 819 l 760 1028 l 107 1028 l 107 0 z "},"F":{"ha":808,"x_min":0,"x_max":0,"o":"m 693 401 l 693 604 l 332 604 l 332 819 l 761 819 l 761 1028 l 107 1028 l 107 0 l 332 0 l 332 401 z "},"G":{"ha":1113,"x_min":0,"x_max":0,"o":"m 569 833 b 797 678 676 833 771 786 l 1033 678 b 575 1044 1010 900 821 1044 b 50 511 257 1044 50 821 b 539 -15 50 196 251 -15 b 828 93 661 -15 772 28 l 840 0 l 1033 0 l 1033 590 l 550 590 l 550 393 l 822 393 b 568 194 813 286 738 194 b 288 504 404 194 288 297 b 569 833 288 703 383 833 z "},"Ğ":{"ha":1113,"x_min":0,"x_max":0,"o":"m 669 1332 b 575 1224 669 1264 635 1224 b 479 1332 514 1224 479 1263 l 328 1332 b 575 1085 328 1179 422 1085 b 819 1332 724 1085 819 1181 z m 569 833 b 797 678 676 833 771 786 l 1033 678 b 575 1044 1010 900 821 1044 b 50 511 257 1044 50 821 b 539 -15 50 196 251 -15 b 828 93 661 -15 772 28 l 840 0 l 1033 0 l 1033 590 l 550 590 l 550 393 l 822 393 b 568 194 813 286 738 194 b 288 504 404 194 288 297 b 569 833 288 703 383 833 z "},"Ĝ":{"ha":1113,"x_min":0,"x_max":0,"o":"m 494 1099 l 574 1244 l 653 1099 l 814 1099 l 676 1343 l 471 1343 l 333 1099 z m 569 833 b 797 678 676 833 771 786 l 1033 678 b 575 1044 1010 900 821 1044 b 50 511 257 1044 50 821 b 539 -15 50 196 251 -15 b 828 93 661 -15 772 28 l 840 0 l 1033 0 l 1033 590 l 550 590 l 550 393 l 822 393 b 568 194 813 286 738 194 b 288 504 404 194 288 297 b 569 833 288 703 383 833 z "},"Ģ":{"ha":1113,"x_min":0,"x_max":0,"o":"m 569 833 b 797 678 676 833 771 786 l 1033 678 b 575 1044 1010 900 821 1044 b 50 511 257 1044 50 821 b 539 -15 50 196 251 -15 b 828 93 661 -15 772 28 l 840 0 l 1033 0 l 1033 590 l 550 590 l 550 393 l 822 393 b 568 194 813 286 738 194 b 288 504 404 194 288 297 b 569 833 288 703 383 833 z m 640 -169 b 535 -47 640 -96 599 -47 b 433 -142 474 -47 433 -85 b 518 -231 433 -192 467 -231 b 557 -221 533 -231 547 -228 b 444 -274 554 -264 518 -283 l 444 -339 b 640 -169 576 -357 640 -274 z "},"Ġ":{"ha":1113,"x_min":0,"x_max":0,"o":"m 572 1108 b 686 1222 635 1108 686 1160 b 572 1336 686 1283 635 1336 b 460 1222 511 1336 460 1285 b 572 1108 460 1158 510 1108 z m 569 833 b 797 678 676 833 771 786 l 1033 678 b 575 1044 1010 900 821 1044 b 50 511 257 1044 50 821 b 539 -15 50 196 251 -15 b 828 93 661 -15 772 28 l 840 0 l 1033 0 l 1033 590 l 550 590 l 550 393 l 822 393 b 568 194 813 286 738 194 b 288 504 404 194 288 297 b 569 833 288 703 383 833 z "},"H":{"ha":1061,"x_min":0,"x_max":0,"o":"m 332 0 l 332 414 l 729 414 l 729 0 l 954 0 l 954 1028 l 729 1028 l 729 622 l 332 622 l 332 1028 l 107 1028 l 107 0 z "},"Ħ":{"ha":1061,"x_min":0,"x_max":0,"o":"m 332 0 l 332 414 l 729 414 l 729 0 l 954 0 l 954 733 l 1060 733 l 1060 922 l 954 922 l 954 1028 l 729 1028 l 729 922 l 332 922 l 332 1028 l 107 1028 l 107 922 l 3 922 l 3 733 l 107 733 l 107 0 z m 332 622 l 332 733 l 729 733 l 729 622 z "},"I":{"ha":439,"x_min":0,"x_max":0,"o":"m 332 1028 l 107 1028 l 107 0 l 332 0 z "},"Í":{"ha":439,"x_min":0,"x_max":0,"o":"m 450 1329 l 258 1329 l 142 1099 l 296 1099 z m 332 1028 l 107 1028 l 107 0 l 332 0 z "},"Î":{"ha":439,"x_min":0,"x_max":0,"o":"m 140 1099 l 219 1244 l 299 1099 l 460 1099 l 322 1343 l 117 1343 l -21 1099 z m 332 1028 l 107 1028 l 107 0 l 332 0 z "},"Ï":{"ha":439,"x_min":0,"x_max":0,"o":"m 82 1108 b 189 1217 140 1108 189 1157 b 82 1324 189 1274 140 1324 b -25 1217 24 1324 -25 1275 b 82 1108 -25 1156 22 1108 z m 357 1108 b 464 1217 415 1108 464 1157 b 357 1324 464 1274 415 1324 b 250 1217 299 1324 250 1275 b 357 1108 250 1156 297 1108 z m 332 1028 l 107 1028 l 107 0 l 332 0 z "},"İ":{"ha":439,"x_min":0,"x_max":0,"o":"m 218 1108 b 332 1222 281 1108 332 1160 b 218 1336 332 1283 281 1336 b 106 1222 157 1336 106 1285 b 218 1108 106 1158 156 1108 z m 332 1028 l 107 1028 l 107 0 l 332 0 z "},"Ì":{"ha":439,"x_min":0,"x_max":0,"o":"m 296 1099 l 179 1329 l -12 1329 l 142 1099 z m 332 1028 l 107 1028 l 107 0 l 332 0 z "},"Ī":{"ha":439,"x_min":0,"x_max":0,"o":"m 18 1135 l 421 1135 l 421 1279 l 18 1279 z m 332 1028 l 107 1028 l 107 0 l 332 0 z "},"Į":{"ha":439,"x_min":0,"x_max":0,"o":"m 204 0 b 79 -161 118 -32 79 -97 b 239 -310 79 -242 140 -310 b 321 -294 269 -310 296 -306 l 321 -158 b 278 -168 306 -165 290 -168 b 219 -112 242 -168 219 -143 b 331 0 219 -74 253 -26 l 332 0 l 332 1028 l 107 1028 l 107 0 z "},"Ĩ":{"ha":439,"x_min":0,"x_max":0,"o":"m 75 1103 b 124 1188 75 1156 88 1188 b 338 1101 176 1188 232 1101 b 483 1326 436 1101 499 1174 l 364 1326 b 314 1240 364 1276 350 1240 b 100 1326 254 1240 201 1326 b -44 1101 -1 1326 -61 1238 z m 332 1028 l 107 1028 l 107 0 l 332 0 z "},"J":{"ha":801,"x_min":0,"x_max":0,"o":"m 28 294 b 364 -18 28 117 138 -18 b 701 289 571 -18 701 113 l 701 1028 l 476 1028 l 476 303 b 361 190 476 233 444 190 b 244 294 275 190 244 240 l 244 367 l 28 367 z "},"Ĵ":{"ha":801,"x_min":0,"x_max":0,"o":"m 510 1099 l 589 1244 l 668 1099 l 829 1099 l 692 1343 l 486 1343 l 349 1099 z m 28 294 b 364 -18 28 117 138 -18 b 701 289 571 -18 701 113 l 701 1028 l 476 1028 l 476 303 b 361 190 476 233 444 190 b 244 294 275 190 244 240 l 244 367 l 28 367 z "},"K":{"ha":985,"x_min":0,"x_max":0,"o":"m 332 1028 l 107 1028 l 107 0 l 332 0 l 332 197 l 485 397 l 711 0 l 971 0 l 632 589 l 968 1028 l 703 1028 l 332 536 z "},"Ķ":{"ha":985,"x_min":0,"x_max":0,"o":"m 332 1028 l 107 1028 l 107 0 l 332 0 l 332 197 l 485 397 l 711 0 l 971 0 l 632 589 l 968 1028 l 703 1028 l 332 536 z m 606 -169 b 500 -47 606 -96 564 -47 b 399 -142 439 -47 399 -85 b 483 -231 399 -192 432 -231 b 522 -221 499 -231 513 -228 b 410 -274 519 -264 483 -283 l 410 -339 b 606 -169 542 -357 606 -274 z "},"L":{"ha":772,"x_min":0,"x_max":0,"o":"m 332 1028 l 107 1028 l 107 0 l 738 0 l 738 208 l 332 208 z "},"Ĺ":{"ha":772,"x_min":0,"x_max":0,"o":"m 451 1301 l 260 1301 l 143 1071 l 297 1071 z m 332 1028 l 107 1028 l 107 0 l 738 0 l 738 208 l 332 208 z "},"Ľ":{"ha":772,"x_min":0,"x_max":0,"o":"m 332 1028 l 107 1028 l 107 0 l 738 0 l 738 208 l 332 208 z m 397 756 l 524 756 l 568 1028 l 397 1028 z "},"Ļ":{"ha":772,"x_min":0,"x_max":0,"o":"m 332 1028 l 107 1028 l 107 0 l 738 0 l 738 208 l 332 208 z m 544 -169 b 439 -47 544 -96 503 -47 b 338 -142 378 -47 338 -85 b 422 -231 338 -192 371 -231 b 461 -221 438 -231 451 -228 b 349 -274 458 -264 422 -283 l 349 -339 b 544 -169 481 -357 544 -274 z "},"Ŀ":{"ha":772,"x_min":0,"x_max":0,"o":"m 332 1028 l 107 1028 l 107 0 l 738 0 l 738 208 l 332 208 z m 538 389 b 653 503 601 389 653 442 b 538 618 653 564 600 618 b 421 503 475 618 421 567 b 538 389 421 442 475 389 z "},"Ł":{"ha":772,"x_min":0,"x_max":0,"o":"m 22 333 l 107 374 l 107 0 l 738 0 l 738 208 l 332 208 l 332 482 l 490 557 l 490 724 l 332 649 l 332 1028 l 107 1028 l 107 540 l 22 500 z "},"M":{"ha":1265,"x_min":0,"x_max":0,"o":"m 325 0 l 325 288 b 311 563 325 400 324 486 l 528 0 l 733 0 l 951 563 b 940 215 940 486 940 438 l 940 0 l 1158 0 l 1158 1028 l 938 1028 l 631 261 l 325 1028 l 107 1028 l 107 0 z "},"N":{"ha":1092,"x_min":0,"x_max":0,"o":"m 329 0 l 329 653 l 763 0 l 985 0 l 985 1028 l 763 1028 l 763 374 l 329 1028 l 107 1028 l 107 0 z "},"Ń":{"ha":1092,"x_min":0,"x_max":0,"o":"m 783 1329 l 592 1329 l 475 1099 l 629 1099 z m 329 0 l 329 653 l 763 0 l 985 0 l 985 1028 l 763 1028 l 763 374 l 329 1028 l 107 1028 l 107 0 z "},"Ň":{"ha":1092,"x_min":0,"x_max":0,"o":"m 450 1099 l 656 1099 l 793 1343 l 632 1343 l 553 1197 l 474 1343 l 313 1343 z m 329 0 l 329 653 l 763 0 l 985 0 l 985 1028 l 763 1028 l 763 374 l 329 1028 l 107 1028 l 107 0 z "},"Ņ":{"ha":1092,"x_min":0,"x_max":0,"o":"m 329 0 l 329 653 l 763 0 l 985 0 l 985 1028 l 763 1028 l 763 374 l 329 1028 l 107 1028 l 107 0 z m 654 -169 b 549 -47 654 -96 613 -47 b 447 -142 488 -47 447 -85 b 532 -231 447 -192 481 -231 b 571 -221 547 -231 561 -228 b 458 -274 568 -264 532 -283 l 458 -339 b 654 -169 590 -357 654 -274 z "},"Ŋ":{"ha":1092,"x_min":0,"x_max":0,"o":"m 724 -356 b 985 -96 890 -356 985 -251 l 985 1028 l 763 1028 l 763 374 l 329 1028 l 107 1028 l 107 0 l 329 0 l 329 653 l 771 -12 l 771 -68 b 689 -158 771 -129 744 -158 b 622 -149 668 -158 643 -156 l 588 -337 b 724 -356 638 -353 679 -356 z "},"Ñ":{"ha":1092,"x_min":0,"x_max":0,"o":"m 408 1103 b 457 1188 408 1156 421 1188 b 671 1101 510 1188 565 1101 b 817 1326 769 1101 832 1174 l 697 1326 b 647 1240 697 1276 683 1240 b 433 1326 588 1240 535 1326 b 289 1101 332 1326 272 1238 z m 329 0 l 329 653 l 763 0 l 985 0 l 985 1028 l 763 1028 l 763 374 l 329 1028 l 107 1028 l 107 0 z "},"O":{"ha":1107,"x_min":0,"x_max":0,"o":"m 1057 515 b 553 1046 1057 829 851 1046 b 50 514 256 1046 50 828 b 551 -17 50 200 254 -17 b 1057 515 850 -17 1057 201 z m 819 515 b 554 200 819 321 719 200 b 288 515 388 200 288 318 b 554 829 288 711 388 829 b 819 515 719 829 819 711 z "},"Ó":{"ha":1107,"x_min":0,"x_max":0,"o":"m 785 1329 l 593 1329 l 476 1099 l 631 1099 z m 1057 515 b 553 1046 1057 829 851 1046 b 50 514 256 1046 50 828 b 551 -17 50 200 254 -17 b 1057 515 850 -17 1057 201 z m 819 515 b 554 200 819 321 719 200 b 288 515 388 200 288 318 b 554 829 288 711 388 829 b 819 515 719 829 819 711 z "},"Ô":{"ha":1107,"x_min":0,"x_max":0,"o":"m 475 1099 l 554 1244 l 633 1099 l 794 1099 l 657 1343 l 451 1343 l 314 1099 z m 1057 515 b 553 1046 1057 829 851 1046 b 50 514 256 1046 50 828 b 551 -17 50 200 254 -17 b 1057 515 850 -17 1057 201 z m 819 515 b 554 200 819 321 719 200 b 288 515 388 200 288 318 b 554 829 288 711 388 829 b 819 515 719 829 819 711 z "},"Ö":{"ha":1107,"x_min":0,"x_max":0,"o":"m 417 1108 b 524 1217 475 1108 524 1157 b 417 1324 524 1274 475 1324 b 310 1217 358 1324 310 1275 b 417 1108 310 1156 357 1108 z m 692 1108 b 799 1217 750 1108 799 1157 b 692 1324 799 1274 750 1324 b 585 1217 633 1324 585 1275 b 692 1108 585 1156 632 1108 z m 1057 515 b 553 1046 1057 829 851 1046 b 50 514 256 1046 50 828 b 551 -17 50 200 254 -17 b 1057 515 850 -17 1057 201 z m 819 515 b 554 200 819 321 719 200 b 288 515 388 200 288 318 b 554 829 288 711 388 829 b 819 515 719 829 819 711 z "},"Ò":{"ha":1107,"x_min":0,"x_max":0,"o":"m 631 1099 l 514 1329 l 322 1329 l 476 1099 z m 1057 515 b 553 1046 1057 829 851 1046 b 50 514 256 1046 50 828 b 551 -17 50 200 254 -17 b 1057 515 850 -17 1057 201 z m 819 515 b 554 200 819 321 719 200 b 288 515 388 200 288 318 b 554 829 288 711 388 829 b 819 515 719 829 819 711 z "},"Ő":{"ha":1107,"x_min":0,"x_max":0,"o":"m 667 1329 l 496 1329 l 365 1099 l 513 1099 z m 911 1329 l 740 1329 l 610 1099 l 757 1099 z m 1057 515 b 553 1046 1057 829 851 1046 b 50 514 256 1046 50 828 b 551 -17 50 200 254 -17 b 1057 515 850 -17 1057 201 z m 819 515 b 554 200 819 321 719 200 b 288 515 388 200 288 318 b 554 829 288 711 388 829 b 819 515 719 829 819 711 z "},"Ō":{"ha":1107,"x_min":0,"x_max":0,"o":"m 353 1135 l 756 1135 l 756 1279 l 353 1279 z m 1057 515 b 553 1046 1057 829 851 1046 b 50 514 256 1046 50 828 b 551 -17 50 200 254 -17 b 1057 515 850 -17 1057 201 z m 819 515 b 554 200 819 321 719 200 b 288 515 388 200 288 318 b 554 829 288 711 388 829 b 819 515 719 829 819 711 z "},"Ø":{"ha":1107,"x_min":0,"x_max":0,"o":"m 1057 515 b 932 881 1057 663 1011 789 l 1043 1029 l 840 1029 l 806 983 b 553 1046 733 1024 647 1046 b 50 514 256 1046 50 828 b 175 147 50 365 96 239 l 65 1 l 278 1 l 307 42 b 551 -17 378 4 460 -17 b 1057 515 850 -17 1057 201 z m 288 515 b 554 829 288 711 388 829 b 671 806 599 829 638 821 l 322 342 b 288 515 300 389 288 447 z m 819 515 b 554 200 819 321 719 200 b 442 222 513 200 475 207 l 786 685 b 819 515 808 639 819 581 z "},"Ǿ":{"ha":1107,"x_min":0,"x_max":0,"o":"m 768 1308 l 576 1308 l 460 1078 l 614 1078 z m 1057 515 b 932 881 1057 663 1011 789 l 1043 1029 l 840 1029 l 806 983 b 553 1046 733 1024 647 1046 b 50 514 256 1046 50 828 b 175 147 50 365 96 239 l 65 1 l 278 1 l 307 42 b 551 -17 378 4 460 -17 b 1057 515 850 -17 1057 201 z m 288 515 b 554 829 288 711 388 829 b 671 806 599 829 638 821 l 322 342 b 288 515 300 389 288 447 z m 819 515 b 554 200 819 321 719 200 b 442 222 513 200 475 207 l 786 685 b 819 515 808 639 819 581 z "},"Õ":{"ha":1107,"x_min":0,"x_max":0,"o":"m 410 1103 b 458 1188 410 1156 422 1188 b 672 1101 511 1188 567 1101 b 818 1326 771 1101 833 1174 l 699 1326 b 649 1240 699 1276 685 1240 b 435 1326 589 1240 536 1326 b 290 1101 333 1326 274 1238 z m 1057 515 b 553 1046 1057 829 851 1046 b 50 514 256 1046 50 828 b 551 -17 50 200 254 -17 b 1057 515 850 -17 1057 201 z m 819 515 b 554 200 819 321 719 200 b 288 515 388 200 288 318 b 554 829 288 711 388 829 b 819 515 719 829 819 711 z "},"Œ":{"ha":1554,"x_min":0,"x_max":0,"o":"m 50 514 b 542 -17 50 206 240 -17 b 824 78 661 -17 772 26 l 824 0 l 1476 0 l 1476 208 l 1049 208 l 1049 421 l 1428 421 l 1428 618 l 1049 618 l 1049 819 l 1476 819 l 1476 1028 l 824 1028 l 824 960 b 554 1046 757 1015 653 1046 b 50 514 247 1046 50 822 z m 288 515 b 554 829 288 718 404 829 b 819 515 704 829 819 718 b 554 200 819 313 704 200 b 288 515 404 200 288 313 z "},"P":{"ha":908,"x_min":0,"x_max":0,"o":"m 524 342 b 874 685 733 342 874 479 b 524 1028 874 890 733 1028 l 107 1028 l 107 0 l 332 0 l 332 342 z m 474 828 b 636 685 582 828 636 781 b 474 542 636 589 582 542 l 332 542 l 332 828 z "},"Þ":{"ha":908,"x_min":0,"x_max":0,"o":"m 524 186 b 874 515 733 186 874 324 b 524 844 874 707 733 844 l 332 844 l 332 1028 l 107 1028 l 107 0 l 332 0 l 332 186 z m 474 644 b 636 515 582 644 636 597 b 474 386 636 433 582 386 l 332 386 l 332 644 z "},"Q":{"ha":1107,"x_min":0,"x_max":0,"o":"m 913 -89 l 1054 36 l 943 163 b 1057 515 1015 253 1057 375 b 553 1046 1057 829 851 1046 b 50 514 256 1046 50 828 b 551 -17 50 200 254 -17 b 797 42 643 -17 726 4 z m 819 515 b 785 342 819 447 807 389 l 651 492 l 510 367 l 644 214 b 554 200 617 204 588 200 b 288 515 388 200 288 318 b 554 829 288 711 388 829 b 819 515 719 829 819 711 z "},"R":{"ha":956,"x_min":0,"x_max":0,"o":"m 332 0 l 332 360 l 506 360 l 660 0 l 906 0 l 725 408 b 896 694 839 467 896 561 b 504 1028 896 907 754 1028 l 107 1028 l 107 0 z m 332 828 l 504 828 b 658 694 604 828 658 781 b 503 557 658 607 601 557 l 332 557 z "},"Ŕ":{"ha":956,"x_min":0,"x_max":0,"o":"m 671 1329 l 479 1329 l 363 1099 l 517 1099 z m 332 0 l 332 360 l 506 360 l 660 0 l 906 0 l 725 408 b 896 694 839 467 896 561 b 504 1028 896 907 754 1028 l 107 1028 l 107 0 z m 332 828 l 504 828 b 658 694 604 828 658 781 b 503 557 658 607 601 557 l 332 557 z "},"Ř":{"ha":956,"x_min":0,"x_max":0,"o":"m 338 1099 l 543 1099 l 681 1343 l 519 1343 l 440 1197 l 361 1343 l 200 1343 z m 332 0 l 332 360 l 506 360 l 660 0 l 906 0 l 725 408 b 896 694 839 467 896 561 b 504 1028 896 907 754 1028 l 107 1028 l 107 0 z m 332 828 l 504 828 b 658 694 604 828 658 781 b 503 557 658 607 601 557 l 332 557 z "},"Ŗ":{"ha":956,"x_min":0,"x_max":0,"o":"m 332 0 l 332 360 l 506 360 l 660 0 l 906 0 l 725 408 b 896 694 839 467 896 561 b 504 1028 896 907 754 1028 l 107 1028 l 107 0 z m 332 828 l 504 828 b 658 694 604 828 658 781 b 503 557 658 607 601 557 l 332 557 z m 597 -169 b 492 -47 597 -96 556 -47 b 390 -142 431 -47 390 -85 b 475 -231 390 -192 424 -231 b 514 -221 490 -231 504 -228 b 401 -274 511 -264 475 -283 l 401 -339 b 597 -169 533 -357 597 -274 z "},"S":{"ha":846,"x_min":0,"x_max":0,"o":"m 50 729 b 328 419 50 561 144 457 l 485 388 b 579 288 553 374 579 344 b 414 182 579 222 515 182 b 258 299 314 182 258 224 l 35 299 b 413 -18 35 106 183 -18 b 804 310 649 -18 804 111 b 533 597 804 472 717 560 l 379 629 b 275 738 307 644 275 675 b 425 847 275 806 333 847 b 564 731 510 847 564 803 l 788 731 b 428 1047 788 925 649 1047 b 50 729 207 1047 50 915 z "},"Ś":{"ha":846,"x_min":0,"x_max":0,"o":"m 650 1329 l 458 1329 l 342 1099 l 496 1099 z m 50 729 b 328 419 50 561 144 457 l 485 388 b 579 288 553 374 579 344 b 414 182 579 222 515 182 b 258 299 314 182 258 224 l 35 299 b 413 -18 35 106 183 -18 b 804 310 649 -18 804 111 b 533 597 804 472 717 560 l 379 629 b 275 738 307 644 275 675 b 425 847 275 806 333 847 b 564 731 510 847 564 803 l 788 731 b 428 1047 788 925 649 1047 b 50 729 207 1047 50 915 z "},"Š":{"ha":846,"x_min":0,"x_max":0,"o":"m 317 1099 l 522 1099 l 660 1343 l 499 1343 l 419 1197 l 340 1343 l 179 1343 z m 50 729 b 328 419 50 561 144 457 l 485 388 b 579 288 553 374 579 344 b 414 182 579 222 515 182 b 258 299 314 182 258 224 l 35 299 b 413 -18 35 106 183 -18 b 804 310 649 -18 804 111 b 533 597 804 472 717 560 l 379 629 b 275 738 307 644 275 675 b 425 847 275 806 333 847 b 564 731 510 847 564 803 l 788 731 b 428 1047 788 925 649 1047 b 50 729 207 1047 50 915 z "},"Ş":{"ha":846,"x_min":0,"x_max":0,"o":"m 304 -296 b 417 -322 335 -311 368 -322 b 593 -176 515 -322 593 -271 b 472 -58 593 -90 528 -58 b 422 -67 453 -58 436 -61 l 449 -17 b 804 310 664 -4 804 121 b 533 597 804 472 717 560 l 379 629 b 275 738 307 644 275 675 b 425 847 275 806 333 847 b 564 731 510 847 564 803 l 788 731 b 428 1047 788 925 649 1047 b 50 729 207 1047 50 915 b 328 419 50 561 144 457 l 485 388 b 579 288 553 374 579 344 b 414 182 579 222 515 182 b 258 299 314 182 258 224 l 35 299 b 368 -17 35 118 164 -1 l 335 -85 l 354 -139 b 422 -128 374 -132 394 -128 b 483 -176 461 -128 483 -146 b 406 -233 483 -210 460 -233 b 304 -207 367 -233 339 -222 z "},"Ŝ":{"ha":846,"x_min":0,"x_max":0,"o":"m 340 1099 l 419 1244 l 499 1099 l 660 1099 l 522 1343 l 317 1343 l 179 1099 z m 50 729 b 328 419 50 561 144 457 l 485 388 b 579 288 553 374 579 344 b 414 182 579 222 515 182 b 258 299 314 182 258 224 l 35 299 b 413 -18 35 106 183 -18 b 804 310 649 -18 804 111 b 533 597 804 472 717 560 l 379 629 b 275 738 307 644 275 675 b 425 847 275 806 333 847 b 564 731 510 847 564 803 l 788 731 b 428 1047 788 925 649 1047 b 50 729 207 1047 50 915 z "},"Ș":{"ha":846,"x_min":0,"x_max":0,"o":"m 50 729 b 328 419 50 561 144 457 l 485 388 b 579 288 553 374 579 344 b 414 182 579 222 515 182 b 258 299 314 182 258 224 l 35 299 b 413 -18 35 106 183 -18 b 804 310 649 -18 804 111 b 533 597 804 472 717 560 l 379 629 b 275 738 307 644 275 675 b 425 847 275 806 333 847 b 564 731 510 847 564 803 l 788 731 b 428 1047 788 925 649 1047 b 50 729 207 1047 50 915 z m 519 -169 b 414 -47 519 -96 478 -47 b 313 -142 353 -47 313 -85 b 397 -231 313 -192 346 -231 b 436 -221 413 -231 426 -228 b 324 -274 433 -264 397 -283 l 324 -339 b 519 -169 456 -357 519 -274 z "},"T":{"ha":864,"x_min":0,"x_max":0,"o":"m 28 819 l 319 819 l 319 0 l 544 0 l 544 819 l 836 819 l 836 1028 l 28 1028 z "},"Ŧ":{"ha":864,"x_min":0,"x_max":0,"o":"m 172 410 l 319 410 l 319 0 l 544 0 l 544 410 l 692 410 l 692 592 l 544 592 l 544 819 l 836 819 l 836 1028 l 28 1028 l 28 819 l 319 819 l 319 592 l 172 592 z "},"Ť":{"ha":864,"x_min":0,"x_max":0,"o":"m 329 1099 l 535 1099 l 672 1343 l 511 1343 l 432 1197 l 353 1343 l 192 1343 z m 28 819 l 319 819 l 319 0 l 544 0 l 544 819 l 836 819 l 836 1028 l 28 1028 z "},"Ţ":{"ha":864,"x_min":0,"x_max":0,"o":"m 318 -296 b 431 -322 349 -311 382 -322 b 607 -176 529 -322 607 -271 b 486 -58 607 -90 542 -58 b 436 -67 467 -58 450 -61 l 471 0 l 544 0 l 544 819 l 836 819 l 836 1028 l 28 1028 l 28 819 l 319 819 l 319 0 l 389 0 l 349 -85 l 368 -139 b 436 -128 388 -132 408 -128 b 497 -176 475 -128 497 -146 b 419 -233 497 -210 474 -233 b 318 -207 381 -233 353 -222 z "},"Ț":{"ha":864,"x_min":0,"x_max":0,"o":"m 28 819 l 319 819 l 319 0 l 544 0 l 544 819 l 836 819 l 836 1028 l 28 1028 z m 533 -169 b 428 -47 533 -96 492 -47 b 326 -142 367 -47 326 -85 b 411 -231 326 -192 360 -231 b 450 -221 426 -231 440 -228 b 338 -274 447 -264 411 -283 l 338 -339 b 533 -169 469 -357 533 -274 z "},"U":{"ha":1047,"x_min":0,"x_max":0,"o":"m 100 386 b 522 -17 100 140 265 -17 b 947 386 781 -17 947 142 l 947 1028 l 722 1028 l 722 401 b 522 201 722 275 650 201 b 325 401 396 201 325 272 l 325 1028 l 100 1028 z "},"Ú":{"ha":1047,"x_min":0,"x_max":0,"o":"m 754 1329 l 563 1329 l 446 1099 l 600 1099 z m 100 386 b 522 -17 100 140 265 -17 b 947 386 781 -17 947 142 l 947 1028 l 722 1028 l 722 401 b 522 201 722 275 650 201 b 325 401 396 201 325 272 l 325 1028 l 100 1028 z "},"Û":{"ha":1047,"x_min":0,"x_max":0,"o":"m 444 1099 l 524 1244 l 603 1099 l 764 1099 l 626 1343 l 421 1343 l 283 1099 z m 100 386 b 522 -17 100 140 265 -17 b 947 386 781 -17 947 142 l 947 1028 l 722 1028 l 722 401 b 522 201 722 275 650 201 b 325 401 396 201 325 272 l 325 1028 l 100 1028 z "},"Ü":{"ha":1047,"x_min":0,"x_max":0,"o":"m 386 1108 b 493 1217 444 1108 493 1157 b 386 1324 493 1274 444 1324 b 279 1217 328 1324 279 1275 b 386 1108 279 1156 326 1108 z m 661 1108 b 768 1217 719 1108 768 1157 b 661 1324 768 1274 719 1324 b 554 1217 603 1324 554 1275 b 661 1108 554 1156 601 1108 z m 100 386 b 522 -17 100 140 265 -17 b 947 386 781 -17 947 142 l 947 1028 l 722 1028 l 722 401 b 522 201 722 275 650 201 b 325 401 396 201 325 272 l 325 1028 l 100 1028 z "},"Ù":{"ha":1047,"x_min":0,"x_max":0,"o":"m 600 1099 l 483 1329 l 292 1329 l 446 1099 z m 100 386 b 522 -17 100 140 265 -17 b 947 386 781 -17 947 142 l 947 1028 l 722 1028 l 722 401 b 522 201 722 275 650 201 b 325 401 396 201 325 272 l 325 1028 l 100 1028 z "},"Ű":{"ha":1047,"x_min":0,"x_max":0,"o":"m 636 1329 l 465 1329 l 335 1099 l 482 1099 z m 881 1329 l 710 1329 l 579 1099 l 726 1099 z m 100 386 b 522 -17 100 140 265 -17 b 947 386 781 -17 947 142 l 947 1028 l 722 1028 l 722 401 b 522 201 722 275 650 201 b 325 401 396 201 325 272 l 325 1028 l 100 1028 z "},"Ū":{"ha":1047,"x_min":0,"x_max":0,"o":"m 322 1135 l 725 1135 l 725 1279 l 322 1279 z m 100 386 b 522 -17 100 140 265 -17 b 947 386 781 -17 947 142 l 947 1028 l 722 1028 l 722 401 b 522 201 722 275 650 201 b 325 401 396 201 325 272 l 325 1028 l 100 1028 z "},"Ų":{"ha":1047,"x_min":0,"x_max":0,"o":"m 100 386 b 497 -17 100 149 254 -6 b 407 -161 435 -51 407 -107 b 567 -310 407 -242 468 -310 b 649 -294 597 -310 624 -306 l 649 -158 b 606 -168 633 -165 618 -168 b 547 -112 569 -168 547 -143 b 657 0 547 -74 581 -28 b 947 386 838 46 947 188 l 947 1028 l 722 1028 l 722 401 b 522 201 722 275 650 201 b 325 401 396 201 325 272 l 325 1028 l 100 1028 z "},"Ů":{"ha":1047,"x_min":0,"x_max":0,"o":"m 524 1074 b 719 1267 636 1074 719 1157 b 524 1461 719 1376 635 1461 b 328 1267 413 1461 328 1376 b 524 1074 328 1154 410 1074 z m 524 1182 b 442 1269 474 1182 442 1217 b 524 1353 442 1319 475 1353 b 606 1269 572 1353 606 1318 b 524 1182 606 1217 574 1182 z m 100 386 b 522 -17 100 140 265 -17 b 947 386 781 -17 947 142 l 947 1028 l 722 1028 l 722 401 b 522 201 722 275 650 201 b 325 401 396 201 325 272 l 325 1028 l 100 1028 z "},"Ũ":{"ha":1047,"x_min":0,"x_max":0,"o":"m 379 1103 b 428 1188 379 1156 392 1188 b 642 1101 481 1188 536 1101 b 788 1326 740 1101 803 1174 l 668 1326 b 618 1240 668 1276 654 1240 b 404 1326 558 1240 506 1326 b 260 1101 303 1326 243 1238 z m 100 386 b 522 -17 100 140 265 -17 b 947 386 781 -17 947 142 l 947 1028 l 722 1028 l 722 401 b 522 201 722 275 650 201 b 325 401 396 201 325 272 l 325 1028 l 100 1028 z "},"V":{"ha":1022,"x_min":0,"x_max":0,"o":"m 399 0 l 631 0 l 1008 1028 l 774 1028 l 582 508 b 514 292 560 447 540 390 b 449 508 492 381 472 444 l 254 1028 l 14 1028 z "},"W":{"ha":1485,"x_min":0,"x_max":0,"o":"m 329 0 l 550 0 l 743 675 l 931 0 l 1150 0 l 1464 1028 l 1235 1028 l 1097 579 b 1043 358 1079 519 1064 463 b 992 582 1025 457 1008 519 l 871 1028 l 619 1028 l 493 582 b 442 358 475 518 458 460 b 390 582 425 460 408 521 l 256 1028 l 21 1028 z "},"Ẃ":{"ha":1485,"x_min":0,"x_max":0,"o":"m 974 1329 l 782 1329 l 665 1099 l 819 1099 z m 329 0 l 550 0 l 743 675 l 931 0 l 1150 0 l 1464 1028 l 1235 1028 l 1097 579 b 1043 358 1079 519 1064 463 b 992 582 1025 457 1008 519 l 871 1028 l 619 1028 l 493 582 b 442 358 475 518 458 460 b 390 582 425 460 408 521 l 256 1028 l 21 1028 z "},"Ŵ":{"ha":1485,"x_min":0,"x_max":0,"o":"m 664 1099 l 743 1244 l 822 1099 l 983 1099 l 846 1343 l 640 1343 l 503 1099 z m 329 0 l 550 0 l 743 675 l 931 0 l 1150 0 l 1464 1028 l 1235 1028 l 1097 579 b 1043 358 1079 519 1064 463 b 992 582 1025 457 1008 519 l 871 1028 l 619 1028 l 493 582 b 442 358 475 518 458 460 b 390 582 425 460 408 521 l 256 1028 l 21 1028 z "},"Ẅ":{"ha":1485,"x_min":0,"x_max":0,"o":"m 606 1108 b 713 1217 664 1108 713 1157 b 606 1324 713 1274 664 1324 b 499 1217 547 1324 499 1275 b 606 1108 499 1156 546 1108 z m 881 1108 b 988 1217 939 1108 988 1157 b 881 1324 988 1274 939 1324 b 774 1217 822 1324 774 1275 b 881 1108 774 1156 821 1108 z m 329 0 l 550 0 l 743 675 l 931 0 l 1150 0 l 1464 1028 l 1235 1028 l 1097 579 b 1043 358 1079 519 1064 463 b 992 582 1025 457 1008 519 l 871 1028 l 619 1028 l 493 582 b 442 358 475 518 458 460 b 390 582 425 460 408 521 l 256 1028 l 21 1028 z "},"Ẁ":{"ha":1485,"x_min":0,"x_max":0,"o":"m 819 1099 l 703 1329 l 511 1329 l 665 1099 z m 329 0 l 550 0 l 743 675 l 931 0 l 1150 0 l 1464 1028 l 1235 1028 l 1097 579 b 1043 358 1079 519 1064 463 b 992 582 1025 457 1008 519 l 871 1028 l 619 1028 l 493 582 b 442 358 475 518 458 460 b 390 582 425 460 408 521 l 256 1028 l 21 1028 z "},"X":{"ha":1004,"x_min":0,"x_max":0,"o":"m 368 514 l 25 0 l 289 0 l 510 342 b 644 107 560 250 593 189 l 713 0 l 979 0 l 654 514 l 979 1028 l 717 1028 l 511 688 b 392 893 465 772 429 835 l 306 1028 l 38 1028 z "},"Y":{"ha":947,"x_min":0,"x_max":0,"o":"m 361 390 l 361 0 l 586 0 l 586 390 l 933 1028 l 689 1028 l 517 696 b 476 611 500 663 489 636 b 438 694 465 638 454 663 l 265 1028 l 14 1028 z "},"Ý":{"ha":947,"x_min":0,"x_max":0,"o":"m 707 1329 l 515 1329 l 399 1099 l 553 1099 z m 361 390 l 361 0 l 586 0 l 586 390 l 933 1028 l 689 1028 l 517 696 b 476 611 500 663 489 636 b 438 694 465 638 454 663 l 265 1028 l 14 1028 z "},"Ŷ":{"ha":947,"x_min":0,"x_max":0,"o":"m 397 1099 l 476 1244 l 556 1099 l 717 1099 l 579 1343 l 374 1343 l 236 1099 z m 361 390 l 361 0 l 586 0 l 586 390 l 933 1028 l 689 1028 l 517 696 b 476 611 500 663 489 636 b 438 694 465 638 454 663 l 265 1028 l 14 1028 z "},"Ÿ":{"ha":947,"x_min":0,"x_max":0,"o":"m 339 1108 b 446 1217 397 1108 446 1157 b 339 1324 446 1274 397 1324 b 232 1217 281 1324 232 1275 b 339 1108 232 1156 279 1108 z m 614 1108 b 721 1217 672 1108 721 1157 b 614 1324 721 1274 672 1324 b 507 1217 556 1324 507 1275 b 614 1108 507 1156 554 1108 z m 361 390 l 361 0 l 586 0 l 586 390 l 933 1028 l 689 1028 l 517 696 b 476 611 500 663 489 636 b 438 694 465 638 454 663 l 265 1028 l 14 1028 z "},"Ỳ":{"ha":947,"x_min":0,"x_max":0,"o":"m 553 1099 l 436 1329 l 244 1329 l 399 1099 z m 361 390 l 361 0 l 586 0 l 586 390 l 933 1028 l 689 1028 l 517 696 b 476 611 500 663 489 636 b 438 694 465 638 454 663 l 265 1028 l 14 1028 z "},"Z":{"ha":824,"x_min":0,"x_max":0,"o":"m 789 0 l 789 208 l 310 208 l 775 826 l 775 1028 l 49 1028 l 49 819 l 493 819 l 35 211 l 35 0 z "},"Ź":{"ha":824,"x_min":0,"x_max":0,"o":"m 629 1329 l 438 1329 l 321 1099 l 475 1099 z m 789 0 l 789 208 l 310 208 l 775 826 l 775 1028 l 49 1028 l 49 819 l 493 819 l 35 211 l 35 0 z "},"Ž":{"ha":824,"x_min":0,"x_max":0,"o":"m 296 1099 l 501 1099 l 639 1343 l 478 1343 l 399 1197 l 319 1343 l 158 1343 z m 789 0 l 789 208 l 310 208 l 775 826 l 775 1028 l 49 1028 l 49 819 l 493 819 l 35 211 l 35 0 z "},"Ż":{"ha":824,"x_min":0,"x_max":0,"o":"m 397 1108 b 511 1222 460 1108 511 1160 b 397 1336 511 1283 460 1336 b 285 1222 336 1336 285 1285 b 397 1108 285 1158 335 1108 z m 789 0 l 789 208 l 310 208 l 775 826 l 775 1028 l 49 1028 l 49 819 l 493 819 l 35 211 l 35 0 z "},"a":{"ha":783,"x_min":0,"x_max":0,"o":"m 290 -18 b 508 92 394 -18 486 28 l 522 0 l 711 0 l 711 406 b 396 717 711 604 597 717 b 68 457 197 717 68 614 l 246 457 b 385 554 246 519 294 554 b 503 450 461 554 503 518 l 503 439 l 308 424 b 51 204 142 411 51 332 b 290 -18 51 68 143 -18 z m 365 140 b 269 214 300 140 269 164 b 396 288 269 258 303 279 l 504 297 l 504 260 b 365 140 504 181 447 140 z "},"á":{"ha":783,"x_min":0,"x_max":0,"o":"m 635 1010 l 443 1010 l 326 779 l 481 779 z m 290 -18 b 508 92 394 -18 486 28 l 522 0 l 711 0 l 711 406 b 396 717 711 604 597 717 b 68 457 197 717 68 614 l 246 457 b 385 554 246 519 294 554 b 503 450 461 554 503 518 l 503 439 l 308 424 b 51 204 142 411 51 332 b 290 -18 51 68 143 -18 z m 365 140 b 269 214 300 140 269 164 b 396 288 269 258 303 279 l 504 297 l 504 260 b 365 140 504 181 447 140 z "},"ă":{"ha":783,"x_min":0,"x_max":0,"o":"m 500 1013 b 406 904 500 944 465 904 b 310 1013 344 904 310 943 l 158 1013 b 406 765 158 860 253 765 b 650 1013 554 765 650 861 z m 290 -18 b 508 92 394 -18 486 28 l 522 0 l 711 0 l 711 406 b 396 717 711 604 597 717 b 68 457 197 717 68 614 l 246 457 b 385 554 246 519 294 554 b 503 450 461 554 503 518 l 503 439 l 308 424 b 51 204 142 411 51 332 b 290 -18 51 68 143 -18 z m 365 140 b 269 214 300 140 269 164 b 396 288 269 258 303 279 l 504 297 l 504 260 b 365 140 504 181 447 140 z "},"â":{"ha":783,"x_min":0,"x_max":0,"o":"m 325 779 l 404 925 l 483 779 l 644 779 l 507 1024 l 301 1024 l 164 779 z m 290 -18 b 508 92 394 -18 486 28 l 522 0 l 711 0 l 711 406 b 396 717 711 604 597 717 b 68 457 197 717 68 614 l 246 457 b 385 554 246 519 294 554 b 503 450 461 554 503 518 l 503 439 l 308 424 b 51 204 142 411 51 332 b 290 -18 51 68 143 -18 z m 365 140 b 269 214 300 140 269 164 b 396 288 269 258 303 279 l 504 297 l 504 260 b 365 140 504 181 447 140 z "},"ä":{"ha":783,"x_min":0,"x_max":0,"o":"m 267 789 b 374 897 325 789 374 838 b 267 1004 374 954 325 1004 b 160 897 208 1004 160 956 b 267 789 160 836 207 789 z m 542 789 b 649 897 600 789 649 838 b 542 1004 649 954 600 1004 b 435 897 483 1004 435 956 b 542 789 435 836 482 789 z m 290 -18 b 508 92 394 -18 486 28 l 522 0 l 711 0 l 711 406 b 396 717 711 604 597 717 b 68 457 197 717 68 614 l 246 457 b 385 554 246 519 294 554 b 503 450 461 554 503 518 l 503 439 l 308 424 b 51 204 142 411 51 332 b 290 -18 51 68 143 -18 z m 365 140 b 269 214 300 140 269 164 b 396 288 269 258 303 279 l 504 297 l 504 260 b 365 140 504 181 447 140 z "},"à":{"ha":783,"x_min":0,"x_max":0,"o":"m 481 779 l 364 1010 l 172 1010 l 326 779 z m 290 -18 b 508 92 394 -18 486 28 l 522 0 l 711 0 l 711 406 b 396 717 711 604 597 717 b 68 457 197 717 68 614 l 246 457 b 385 554 246 519 294 554 b 503 450 461 554 503 518 l 503 439 l 308 424 b 51 204 142 411 51 332 b 290 -18 51 68 143 -18 z m 365 140 b 269 214 300 140 269 164 b 396 288 269 258 303 279 l 504 297 l 504 260 b 365 140 504 181 447 140 z "},"ā":{"ha":783,"x_min":0,"x_max":0,"o":"m 203 815 l 606 815 l 606 960 l 203 960 z m 290 -18 b 508 92 394 -18 486 28 l 522 0 l 711 0 l 711 406 b 396 717 711 604 597 717 b 68 457 197 717 68 614 l 246 457 b 385 554 246 519 294 554 b 503 450 461 554 503 518 l 503 439 l 308 424 b 51 204 142 411 51 332 b 290 -18 51 68 143 -18 z m 365 140 b 269 214 300 140 269 164 b 396 288 269 258 303 279 l 504 297 l 504 260 b 365 140 504 181 447 140 z "},"ą":{"ha":783,"x_min":0,"x_max":0,"o":"m 290 -18 b 508 92 394 -18 486 28 l 522 0 l 583 0 b 458 -161 497 -32 458 -97 b 618 -310 458 -242 519 -310 b 700 -294 649 -310 675 -306 l 700 -158 b 657 -168 685 -165 669 -168 b 599 -112 621 -168 599 -143 b 710 0 599 -74 632 -26 l 711 0 l 711 406 b 396 717 711 604 597 717 b 68 457 197 717 68 614 l 246 457 b 385 554 246 519 294 554 b 503 450 461 554 503 518 l 503 439 l 308 424 b 51 204 142 411 51 332 b 290 -18 51 68 143 -18 z m 365 140 b 269 214 300 140 269 164 b 396 288 269 258 303 279 l 504 297 l 504 260 b 365 140 504 181 447 140 z "},"å":{"ha":783,"x_min":0,"x_max":0,"o":"m 404 754 b 600 947 517 754 600 838 b 404 1142 600 1057 515 1142 b 208 947 293 1142 208 1057 b 404 754 208 835 290 754 z m 404 863 b 322 950 354 863 322 897 b 404 1033 322 1000 356 1033 b 486 950 453 1033 486 999 b 404 863 486 897 454 863 z m 290 -18 b 508 92 394 -18 486 28 l 522 0 l 711 0 l 711 406 b 396 717 711 604 597 717 b 68 457 197 717 68 614 l 246 457 b 385 554 246 519 294 554 b 503 450 461 554 503 518 l 503 439 l 308 424 b 51 204 142 411 51 332 b 290 -18 51 68 143 -18 z m 365 140 b 269 214 300 140 269 164 b 396 288 269 258 303 279 l 504 297 l 504 260 b 365 140 504 181 447 140 z "},"ǻ":{"ha":783,"x_min":0,"x_max":0,"o":"m 617 1218 l 440 1218 l 333 1019 l 475 1019 z m 290 -18 b 508 92 394 -18 486 28 l 522 0 l 711 0 l 711 406 b 558 685 711 542 657 638 b 596 801 582 717 596 757 b 400 996 596 911 511 996 b 204 801 289 996 204 911 b 236 690 204 758 215 721 b 68 457 131 650 68 567 l 246 457 b 385 554 246 519 294 554 b 503 450 461 554 503 518 l 503 439 l 308 424 b 51 204 142 411 51 332 b 290 -18 51 68 143 -18 z m 400 717 b 318 804 350 717 318 751 b 400 888 318 854 351 888 b 482 804 449 888 482 853 b 400 717 482 751 450 717 z m 365 140 b 269 214 300 140 269 164 b 396 288 269 258 303 279 l 504 297 l 504 260 b 365 140 504 181 447 140 z "},"ã":{"ha":783,"x_min":0,"x_max":0,"o":"m 260 783 b 308 868 260 836 272 868 b 522 782 361 868 417 782 b 668 1007 621 782 683 854 l 549 1007 b 499 921 549 957 535 921 b 285 1007 439 921 386 1007 b 140 782 183 1007 124 918 z m 290 -18 b 508 92 394 -18 486 28 l 522 0 l 711 0 l 711 406 b 396 717 711 604 597 717 b 68 457 197 717 68 614 l 246 457 b 385 554 246 519 294 554 b 503 450 461 554 503 518 l 503 439 l 308 424 b 51 204 142 411 51 332 b 290 -18 51 68 143 -18 z m 365 140 b 269 214 300 140 269 164 b 396 288 269 258 303 279 l 504 297 l 504 260 b 365 140 504 181 447 140 z "},"æ":{"ha":1246,"x_min":0,"x_max":0,"o":"m 51 204 b 306 -18 51 69 142 -18 b 575 114 425 -18 522 25 b 850 -18 636 31 732 -18 b 1203 235 1043 -18 1178 83 l 1007 235 b 854 156 993 189 940 156 b 694 290 757 156 708 208 l 1200 293 l 1200 347 b 846 717 1200 567 1071 717 b 618 636 754 717 676 688 b 382 717 572 688 500 717 b 68 457 194 717 68 613 l 246 457 b 378 554 246 517 292 554 b 503 450 458 554 503 521 l 503 424 l 308 419 b 51 204 154 417 51 340 z m 847 543 b 988 421 940 543 988 489 l 694 421 b 847 543 710 493 753 543 z m 269 214 b 382 289 269 269 303 286 l 504 293 l 504 260 b 365 140 504 188 454 140 b 269 214 306 140 269 167 z "},"ǽ":{"ha":1246,"x_min":0,"x_max":0,"o":"m 836 1010 l 644 1010 l 528 779 l 682 779 z m 51 204 b 306 -18 51 69 142 -18 b 575 114 425 -18 522 25 b 850 -18 636 31 732 -18 b 1203 235 1043 -18 1178 83 l 1007 235 b 854 156 993 189 940 156 b 694 290 757 156 708 208 l 1200 293 l 1200 347 b 846 717 1200 567 1071 717 b 618 636 754 717 676 688 b 382 717 572 688 500 717 b 68 457 194 717 68 613 l 246 457 b 378 554 246 517 292 554 b 503 450 458 554 503 521 l 503 424 l 308 419 b 51 204 154 417 51 340 z m 847 543 b 988 421 940 543 988 489 l 694 421 b 847 543 710 493 753 543 z m 269 214 b 382 289 269 269 303 286 l 504 293 l 504 260 b 365 140 504 188 454 140 b 269 214 306 140 269 167 z "},"b":{"ha":889,"x_min":0,"x_max":0,"o":"m 282 0 l 293 89 b 511 -18 331 25 414 -18 b 846 340 708 -18 846 125 b 528 718 846 567 722 718 b 294 614 428 718 336 676 l 294 1047 l 81 1047 l 81 0 z m 296 351 b 465 525 296 456 365 525 b 631 351 567 525 631 454 b 465 178 631 249 567 178 b 296 351 365 178 296 247 z "},"c":{"ha":790,"x_min":0,"x_max":0,"o":"m 43 350 b 404 -18 43 128 185 -18 b 754 276 599 -18 740 101 l 539 276 b 404 174 525 208 479 174 b 258 350 313 174 258 239 b 407 525 258 457 317 525 b 539 422 481 525 524 492 l 754 422 b 399 717 740 604 604 717 b 43 350 190 717 43 564 z "},"ć":{"ha":790,"x_min":0,"x_max":0,"o":"m 631 1010 l 439 1010 l 322 779 l 476 779 z m 43 350 b 404 -18 43 128 185 -18 b 754 276 599 -18 740 101 l 539 276 b 404 174 525 208 479 174 b 258 350 313 174 258 239 b 407 525 258 457 317 525 b 539 422 481 525 524 492 l 754 422 b 399 717 740 604 604 717 b 43 350 190 717 43 564 z "},"č":{"ha":790,"x_min":0,"x_max":0,"o":"m 297 779 l 503 779 l 640 1024 l 479 1024 l 400 878 l 321 1024 l 160 1024 z m 43 350 b 404 -18 43 128 185 -18 b 754 276 599 -18 740 101 l 539 276 b 404 174 525 208 479 174 b 258 350 313 174 258 239 b 407 525 258 457 317 525 b 539 422 481 525 524 492 l 754 422 b 399 717 740 604 604 717 b 43 350 190 717 43 564 z "},"ç":{"ha":790,"x_min":0,"x_max":0,"o":"m 43 350 b 354 -15 43 146 164 6 l 321 -85 l 340 -139 b 408 -128 360 -132 381 -128 b 469 -176 447 -128 469 -146 b 392 -233 469 -210 446 -233 b 290 -207 353 -233 325 -222 l 290 -296 b 403 -322 321 -311 354 -322 b 579 -176 501 -322 579 -271 b 458 -58 579 -90 514 -58 b 408 -67 439 -58 422 -61 l 435 -17 b 754 276 614 -6 742 111 l 539 276 b 404 174 525 208 479 174 b 258 350 313 174 258 239 b 407 525 258 457 317 525 b 539 422 481 525 524 492 l 754 422 b 399 717 740 604 604 717 b 43 350 190 717 43 564 z "},"ĉ":{"ha":790,"x_min":0,"x_max":0,"o":"m 321 779 l 400 925 l 479 779 l 640 779 l 503 1024 l 297 1024 l 160 779 z m 43 350 b 404 -18 43 128 185 -18 b 754 276 599 -18 740 101 l 539 276 b 404 174 525 208 479 174 b 258 350 313 174 258 239 b 407 525 258 457 317 525 b 539 422 481 525 524 492 l 754 422 b 399 717 740 604 604 717 b 43 350 190 717 43 564 z "},"ċ":{"ha":790,"x_min":0,"x_max":0,"o":"m 399 789 b 513 903 461 789 513 840 b 399 1017 513 964 461 1017 b 286 903 338 1017 286 965 b 399 789 286 839 336 789 z m 43 350 b 404 -18 43 128 185 -18 b 754 276 599 -18 740 101 l 539 276 b 404 174 525 208 479 174 b 258 350 313 174 258 239 b 407 525 258 457 317 525 b 539 422 481 525 524 492 l 754 422 b 399 717 740 604 604 717 b 43 350 190 717 43 564 z "},"d":{"ha":889,"x_min":0,"x_max":0,"o":"m 372 -18 b 596 89 472 -18 558 25 l 607 0 l 808 0 l 808 1047 l 594 1047 l 594 631 b 386 717 554 682 472 717 b 43 343 175 717 43 564 b 372 -18 43 124 172 -18 z m 424 178 b 258 351 322 178 258 249 b 424 525 258 454 322 525 b 593 351 524 525 593 456 b 424 178 593 247 524 178 z "},"ð":{"ha":842,"x_min":0,"x_max":0,"o":"m 43 340 b 422 -18 43 129 189 -18 b 799 386 629 -18 799 113 b 646 876 799 550 744 721 l 715 900 l 672 1015 l 571 981 b 513 1047 553 1003 533 1025 l 271 1047 b 382 915 313 1004 349 960 l 231 864 l 274 749 l 454 811 b 546 646 492 751 522 696 b 393 683 504 674 453 683 b 43 340 206 683 43 550 z m 258 332 b 418 492 258 418 311 492 b 579 329 526 492 579 417 b 419 174 579 244 526 174 b 258 332 311 174 258 249 z "},"ď":{"ha":889,"x_min":0,"x_max":0,"o":"m 372 -18 b 596 89 472 -18 558 25 l 607 0 l 808 0 l 808 1047 l 594 1047 l 594 631 b 386 717 554 682 472 717 b 43 343 175 717 43 564 b 372 -18 43 124 172 -18 z m 874 775 l 1000 775 l 1044 1047 l 874 1047 z m 424 178 b 258 351 322 178 258 249 b 424 525 258 454 322 525 b 593 351 524 525 593 456 b 424 178 593 247 524 178 z "},"đ":{"ha":889,"x_min":0,"x_max":0,"o":"m 372 -18 b 596 89 472 -18 558 25 l 607 0 l 808 0 l 808 801 l 899 801 l 899 925 l 808 925 l 808 1047 l 594 1047 l 594 925 l 379 925 l 379 801 l 594 801 l 594 631 b 386 717 554 682 472 717 b 43 343 175 717 43 564 b 372 -18 43 124 172 -18 z m 424 178 b 258 351 322 178 258 249 b 424 525 258 454 322 525 b 593 351 524 525 593 456 b 424 178 593 247 524 178 z "},"e":{"ha":799,"x_min":0,"x_max":0,"o":"m 403 -18 b 756 235 593 -18 731 81 l 560 235 b 407 156 544 185 488 156 b 249 290 313 156 261 199 l 753 293 l 753 347 b 399 717 753 574 617 717 b 43 349 189 717 43 565 b 403 -18 43 135 193 -18 z m 400 543 b 540 422 486 543 540 496 l 251 422 b 400 543 268 506 315 543 z "},"é":{"ha":799,"x_min":0,"x_max":0,"o":"m 633 1010 l 442 1010 l 325 779 l 479 779 z m 403 -18 b 756 235 593 -18 731 81 l 560 235 b 407 156 544 185 488 156 b 249 290 313 156 261 199 l 753 293 l 753 347 b 399 717 753 574 617 717 b 43 349 189 717 43 565 b 403 -18 43 135 193 -18 z m 400 543 b 540 422 486 543 540 496 l 251 422 b 400 543 268 506 315 543 z "},"ĕ":{"ha":799,"x_min":0,"x_max":0,"o":"m 499 1013 b 404 904 499 944 464 904 b 308 1013 343 904 308 943 l 157 1013 b 404 765 157 860 251 765 b 649 1013 553 765 649 861 z m 403 -18 b 756 235 593 -18 731 81 l 560 235 b 407 156 544 185 488 156 b 249 290 313 156 261 199 l 753 293 l 753 347 b 399 717 753 574 617 717 b 43 349 189 717 43 565 b 403 -18 43 135 193 -18 z m 400 543 b 540 422 486 543 540 496 l 251 422 b 400 543 268 506 315 543 z "},"ě":{"ha":799,"x_min":0,"x_max":0,"o":"m 300 779 l 506 779 l 643 1024 l 482 1024 l 403 878 l 324 1024 l 163 1024 z m 403 -18 b 756 235 593 -18 731 81 l 560 235 b 407 156 544 185 488 156 b 249 290 313 156 261 199 l 753 293 l 753 347 b 399 717 753 574 617 717 b 43 349 189 717 43 565 b 403 -18 43 135 193 -18 z m 400 543 b 540 422 486 543 540 496 l 251 422 b 400 543 268 506 315 543 z "},"ê":{"ha":799,"x_min":0,"x_max":0,"o":"m 324 779 l 403 925 l 482 779 l 643 779 l 506 1024 l 300 1024 l 163 779 z m 403 -18 b 756 235 593 -18 731 81 l 560 235 b 407 156 544 185 488 156 b 249 290 313 156 261 199 l 753 293 l 753 347 b 399 717 753 574 617 717 b 43 349 189 717 43 565 b 403 -18 43 135 193 -18 z m 400 543 b 540 422 486 543 540 496 l 251 422 b 400 543 268 506 315 543 z "},"ë":{"ha":799,"x_min":0,"x_max":0,"o":"m 265 789 b 372 897 324 789 372 838 b 265 1004 372 954 324 1004 b 158 897 207 1004 158 956 b 265 789 158 836 206 789 z m 540 789 b 647 897 599 789 647 838 b 540 1004 647 954 599 1004 b 433 897 482 1004 433 956 b 540 789 433 836 481 789 z m 403 -18 b 756 235 593 -18 731 81 l 560 235 b 407 156 544 185 488 156 b 249 290 313 156 261 199 l 753 293 l 753 347 b 399 717 753 574 617 717 b 43 349 189 717 43 565 b 403 -18 43 135 193 -18 z m 400 543 b 540 422 486 543 540 496 l 251 422 b 400 543 268 506 315 543 z "},"ė":{"ha":799,"x_min":0,"x_max":0,"o":"m 401 789 b 515 903 464 789 515 840 b 401 1017 515 964 464 1017 b 289 903 340 1017 289 965 b 401 789 289 839 339 789 z m 403 -18 b 756 235 593 -18 731 81 l 560 235 b 407 156 544 185 488 156 b 249 290 313 156 261 199 l 753 293 l 753 347 b 399 717 753 574 617 717 b 43 349 189 717 43 565 b 403 -18 43 135 193 -18 z m 400 543 b 540 422 486 543 540 496 l 251 422 b 400 543 268 506 315 543 z "},"è":{"ha":799,"x_min":0,"x_max":0,"o":"m 479 779 l 363 1010 l 171 1010 l 325 779 z m 403 -18 b 756 235 593 -18 731 81 l 560 235 b 407 156 544 185 488 156 b 249 290 313 156 261 199 l 753 293 l 753 347 b 399 717 753 574 617 717 b 43 349 189 717 43 565 b 403 -18 43 135 193 -18 z m 400 543 b 540 422 486 543 540 496 l 251 422 b 400 543 268 506 315 543 z "},"ē":{"ha":799,"x_min":0,"x_max":0,"o":"m 201 815 l 604 815 l 604 960 l 201 960 z m 403 -18 b 756 235 593 -18 731 81 l 560 235 b 407 156 544 185 488 156 b 249 290 313 156 261 199 l 753 293 l 753 347 b 399 717 753 574 617 717 b 43 349 189 717 43 565 b 403 -18 43 135 193 -18 z m 400 543 b 540 422 486 543 540 496 l 251 422 b 400 543 268 506 315 543 z "},"ę":{"ha":799,"x_min":0,"x_max":0,"o":"m 525 -294 l 525 -158 b 482 -168 510 -165 494 -168 b 424 -112 446 -168 424 -143 b 532 -1 424 -74 456 -28 b 756 235 653 33 736 118 l 560 235 b 407 156 544 185 488 156 b 249 290 313 156 261 199 l 753 293 l 753 347 b 399 717 753 574 617 717 b 43 349 189 717 43 565 b 372 -17 43 146 179 -3 b 283 -161 311 -51 283 -107 b 443 -310 283 -242 344 -310 b 525 -294 474 -310 500 -306 z m 400 543 b 540 422 486 543 540 496 l 251 422 b 400 543 268 506 315 543 z "},"f":{"ha":507,"x_min":0,"x_max":0,"o":"m 15 694 l 15 517 l 111 517 l 111 0 l 325 0 l 325 517 l 492 517 l 492 694 l 325 694 l 325 750 b 432 856 325 810 344 856 l 492 856 l 492 1039 b 396 1047 458 1044 425 1047 b 111 750 219 1047 111 957 l 111 694 z "},"g":{"ha":879,"x_min":0,"x_max":0,"o":"m 46 360 b 375 8 46 151 181 8 b 585 90 465 8 543 40 l 585 0 b 417 -160 585 -99 519 -160 b 260 -36 322 -160 264 -114 l 43 -36 b 418 -354 63 -233 206 -354 b 799 44 656 -354 799 -204 l 799 694 l 597 694 l 586 625 b 379 718 549 682 474 718 b 46 360 183 718 46 571 z m 261 365 b 421 532 261 464 326 532 b 585 365 519 532 585 467 b 422 194 585 263 519 194 b 261 365 328 194 261 265 z "},"ğ":{"ha":879,"x_min":0,"x_max":0,"o":"m 497 1013 b 403 904 497 944 463 904 b 307 1013 342 904 307 943 l 156 1013 b 403 765 156 860 250 765 b 647 1013 551 765 647 861 z m 46 360 b 375 8 46 151 181 8 b 585 90 465 8 543 40 l 585 0 b 417 -160 585 -99 519 -160 b 260 -36 322 -160 264 -114 l 43 -36 b 418 -354 63 -233 206 -354 b 799 44 656 -354 799 -204 l 799 694 l 597 694 l 586 625 b 379 718 549 682 474 718 b 46 360 183 718 46 571 z m 261 365 b 421 532 261 464 326 532 b 585 365 519 532 585 467 b 422 194 585 263 519 194 b 261 365 328 194 261 265 z "},"ĝ":{"ha":879,"x_min":0,"x_max":0,"o":"m 322 779 l 401 925 l 481 779 l 642 779 l 504 1024 l 299 1024 l 161 779 z m 46 360 b 375 8 46 151 181 8 b 585 90 465 8 543 40 l 585 0 b 417 -160 585 -99 519 -160 b 260 -36 322 -160 264 -114 l 43 -36 b 418 -354 63 -233 206 -354 b 799 44 656 -354 799 -204 l 799 694 l 597 694 l 586 625 b 379 718 549 682 474 718 b 46 360 183 718 46 571 z m 261 365 b 421 532 261 464 326 532 b 585 365 519 532 585 467 b 422 194 585 263 519 194 b 261 365 328 194 261 265 z "},"ģ":{"ha":879,"x_min":0,"x_max":0,"o":"m 494 901 b 410 990 494 951 461 990 b 371 981 394 990 381 988 b 483 1033 374 1024 410 1043 l 483 1099 b 288 929 351 1117 288 1033 b 393 807 288 856 329 807 b 494 901 454 807 494 844 z m 46 360 b 375 8 46 151 181 8 b 585 90 465 8 543 40 l 585 0 b 417 -160 585 -99 519 -160 b 260 -36 322 -160 264 -114 l 43 -36 b 418 -354 63 -233 206 -354 b 799 44 656 -354 799 -204 l 799 694 l 597 694 l 586 625 b 379 718 549 682 474 718 b 46 360 183 718 46 571 z m 261 365 b 421 532 261 464 326 532 b 585 365 519 532 585 467 b 422 194 585 263 519 194 b 261 365 328 194 261 265 z "},"ġ":{"ha":879,"x_min":0,"x_max":0,"o":"m 400 789 b 514 903 463 789 514 840 b 400 1017 514 964 463 1017 b 288 903 339 1017 288 965 b 400 789 288 839 338 789 z m 46 360 b 375 8 46 151 181 8 b 585 90 465 8 543 40 l 585 0 b 417 -160 585 -99 519 -160 b 260 -36 322 -160 264 -114 l 43 -36 b 418 -354 63 -233 206 -354 b 799 44 656 -354 799 -204 l 799 694 l 597 694 l 586 625 b 379 718 549 682 474 718 b 46 360 183 718 46 571 z m 261 365 b 421 532 261 464 326 532 b 585 365 519 532 585 467 b 422 194 585 263 519 194 b 261 365 328 194 261 265 z "},"h":{"ha":842,"x_min":0,"x_max":0,"o":"m 294 0 l 294 381 b 433 522 294 467 349 522 b 556 378 507 522 556 465 l 556 0 l 769 0 l 769 429 b 508 717 769 611 674 717 b 296 622 418 717 339 682 l 296 1047 l 81 1047 l 81 0 z "},"ħ":{"ha":842,"x_min":0,"x_max":0,"o":"m 294 0 l 294 381 b 433 522 294 467 349 522 b 556 378 507 522 556 465 l 556 0 l 769 0 l 769 429 b 508 717 769 611 674 717 b 296 622 418 717 339 682 l 296 801 l 510 801 l 510 925 l 296 925 l 296 1047 l 81 1047 l 81 925 l -10 925 l -10 801 l 81 801 l 81 0 z "},"i":{"ha":375,"x_min":0,"x_max":0,"o":"m 186 803 b 307 925 253 803 307 857 b 186 1046 307 993 253 1046 b 64 925 118 1046 64 993 b 186 803 64 857 118 803 z m 81 0 l 294 0 l 294 694 l 81 694 z "},"í":{"ha":375,"x_min":0,"x_max":0,"o":"m 419 1010 l 228 1010 l 111 779 l 265 779 z m 81 0 l 294 0 l 294 694 l 81 694 z "},"î":{"ha":375,"x_min":0,"x_max":0,"o":"m 110 779 l 189 925 l 268 779 l 429 779 l 292 1024 l 86 1024 l -51 779 z m 81 0 l 294 0 l 294 694 l 81 694 z "},"ï":{"ha":375,"x_min":0,"x_max":0,"o":"m 51 789 b 158 897 110 789 158 838 b 51 1004 158 954 110 1004 b -56 897 -7 1004 -56 956 b 51 789 -56 836 -8 789 z m 326 789 b 433 897 385 789 433 838 b 326 1004 433 954 385 1004 b 219 897 268 1004 219 956 b 326 789 219 836 267 789 z m 81 0 l 294 0 l 294 694 l 81 694 z "},"ì":{"ha":375,"x_min":0,"x_max":0,"o":"m 265 779 l 149 1010 l -43 1010 l 111 779 z m 81 0 l 294 0 l 294 694 l 81 694 z "},"ī":{"ha":375,"x_min":0,"x_max":0,"o":"m -12 815 l 390 815 l 390 960 l -12 960 z m 81 0 l 294 0 l 294 694 l 81 694 z "},"į":{"ha":375,"x_min":0,"x_max":0,"o":"m 186 803 b 307 925 253 803 307 857 b 186 1046 307 993 253 1046 b 64 925 118 1046 64 993 b 186 803 64 857 118 803 z m 81 0 l 167 0 b 42 -161 81 -32 42 -97 b 201 -310 42 -242 103 -310 b 283 -294 232 -310 258 -306 l 283 -158 b 240 -168 268 -165 253 -168 b 182 -112 204 -168 182 -143 b 293 0 182 -74 215 -26 l 294 0 l 294 694 l 81 694 z "},"ĩ":{"ha":375,"x_min":0,"x_max":0,"o":"m 44 783 b 93 868 44 836 57 868 b 307 782 146 868 201 782 b 453 1007 406 782 468 854 l 333 1007 b 283 921 333 957 319 921 b 69 1007 224 921 171 1007 b -75 782 -32 1007 -92 918 z m 81 0 l 294 0 l 294 694 l 81 694 z "},"j":{"ha":375,"x_min":0,"x_max":0,"o":"m 188 803 b 308 925 254 803 308 857 b 188 1046 308 993 254 1046 b 65 925 119 1046 65 993 b 188 803 65 857 119 803 z m -75 -339 b 33 -356 -25 -354 3 -356 b 294 -96 200 -356 294 -251 l 294 694 l 81 694 l 81 -68 b 13 -158 81 -129 65 -158 b -40 -150 -8 -158 -19 -157 z "},"ĵ":{"ha":375,"x_min":0,"x_max":0,"o":"m 111 779 l 190 925 l 269 779 l 431 779 l 293 1024 l 88 1024 l -50 779 z m -75 -339 b 33 -356 -25 -354 3 -356 b 294 -96 200 -356 294 -251 l 294 694 l 81 694 l 81 -68 b 13 -158 81 -129 65 -158 b -40 -150 -8 -158 -19 -157 z "},"k":{"ha":794,"x_min":0,"x_max":0,"o":"m 294 0 l 294 174 l 376 260 l 532 0 l 779 0 l 526 419 l 788 694 l 519 694 l 294 444 l 294 1047 l 81 1047 l 81 0 z "},"ķ":{"ha":794,"x_min":0,"x_max":0,"o":"m 294 0 l 294 174 l 376 260 l 532 0 l 779 0 l 526 419 l 788 694 l 519 694 l 294 444 l 294 1047 l 81 1047 l 81 0 z m 500 -169 b 394 -47 500 -96 458 -47 b 293 -142 333 -47 293 -85 b 378 -231 293 -192 326 -231 b 417 -221 393 -231 407 -228 b 304 -274 414 -264 378 -283 l 304 -339 b 500 -169 436 -357 500 -274 z "},"l":{"ha":375,"x_min":0,"x_max":0,"o":"m 294 0 l 294 1047 l 81 1047 l 81 0 z "},"ĺ":{"ha":375,"x_min":0,"x_max":0,"o":"m 418 1322 l 226 1322 l 110 1092 l 264 1092 z m 294 0 l 294 1047 l 81 1047 l 81 0 z "},"ľ":{"ha":375,"x_min":0,"x_max":0,"o":"m 294 0 l 294 1047 l 81 1047 l 81 0 z m 360 775 l 486 775 l 531 1047 l 360 1047 z "},"ļ":{"ha":375,"x_min":0,"x_max":0,"o":"m 294 0 l 294 1047 l 81 1047 l 81 0 z m 289 -169 b 183 -47 289 -96 247 -47 b 82 -142 122 -47 82 -85 b 167 -231 82 -192 115 -231 b 206 -221 182 -231 196 -228 b 93 -274 203 -264 167 -283 l 93 -339 b 289 -169 225 -357 289 -274 z "},"ŀ":{"ha":578,"x_min":0,"x_max":0,"o":"m 294 0 l 294 1047 l 81 1047 l 81 0 z m 478 389 b 593 504 540 389 593 443 b 478 621 593 567 539 621 b 360 504 413 621 360 568 b 478 389 360 442 413 389 z "},"ł":{"ha":375,"x_min":0,"x_max":0,"o":"m 294 0 l 294 514 l 365 547 l 365 696 l 294 663 l 294 1047 l 81 1047 l 81 560 l 13 528 l 13 379 l 81 411 l 81 0 z "},"m":{"ha":1267,"x_min":0,"x_max":0,"o":"m 294 0 l 294 372 b 418 522 294 489 357 522 b 531 394 486 522 531 481 l 531 0 l 744 0 l 744 372 b 867 524 744 490 806 524 b 981 394 935 524 981 482 l 981 0 l 1194 0 l 1194 454 b 926 717 1194 613 1106 717 b 708 594 826 717 744 668 b 497 717 668 668 601 717 b 294 622 397 717 329 671 l 281 694 l 81 694 l 81 0 z "},"n":{"ha":842,"x_min":0,"x_max":0,"o":"m 294 0 l 294 381 b 433 522 294 467 349 522 b 556 378 507 522 556 465 l 556 0 l 769 0 l 769 429 b 508 717 769 611 674 717 b 296 622 418 717 339 682 l 282 694 l 81 694 l 81 0 z "},"ń":{"ha":842,"x_min":0,"x_max":0,"o":"m 669 1010 l 478 1010 l 361 779 l 515 779 z m 294 0 l 294 381 b 433 522 294 467 349 522 b 556 378 507 522 556 465 l 556 0 l 769 0 l 769 429 b 508 717 769 611 674 717 b 296 622 418 717 339 682 l 282 694 l 81 694 l 81 0 z "},"ň":{"ha":842,"x_min":0,"x_max":0,"o":"m 336 779 l 542 779 l 679 1024 l 518 1024 l 439 878 l 360 1024 l 199 1024 z m 294 0 l 294 381 b 433 522 294 467 349 522 b 556 378 507 522 556 465 l 556 0 l 769 0 l 769 429 b 508 717 769 611 674 717 b 296 622 418 717 339 682 l 282 694 l 81 694 l 81 0 z "},"ņ":{"ha":842,"x_min":0,"x_max":0,"o":"m 294 0 l 294 381 b 433 522 294 467 349 522 b 556 378 507 522 556 465 l 556 0 l 769 0 l 769 429 b 508 717 769 611 674 717 b 296 622 418 717 339 682 l 282 694 l 81 694 l 81 0 z m 528 -169 b 422 -47 528 -96 486 -47 b 321 -142 361 -47 321 -85 b 406 -231 321 -192 354 -231 b 444 -221 421 -231 435 -228 b 332 -274 442 -264 406 -283 l 332 -339 b 528 -169 464 -357 528 -274 z "},"ŋ":{"ha":842,"x_min":0,"x_max":0,"o":"m 294 0 l 294 381 b 433 522 294 467 349 522 b 556 378 507 522 556 465 l 556 -68 b 488 -158 556 -129 540 -158 b 435 -150 467 -158 456 -157 l 400 -339 b 508 -356 450 -354 478 -356 b 769 -96 675 -356 769 -251 l 769 429 b 508 717 769 611 674 717 b 296 622 418 717 339 682 l 282 694 l 81 694 l 81 0 z "},"ñ":{"ha":842,"x_min":0,"x_max":0,"o":"m 294 783 b 343 868 294 836 307 868 b 557 782 396 868 451 782 b 703 1007 656 782 718 854 l 583 1007 b 533 921 583 957 569 921 b 319 1007 474 921 421 1007 b 175 782 218 1007 158 918 z m 294 0 l 294 381 b 433 522 294 467 349 522 b 556 378 507 522 556 465 l 556 0 l 769 0 l 769 429 b 508 717 769 611 674 717 b 296 622 418 717 339 682 l 282 694 l 81 694 l 81 0 z "},"o":{"ha":851,"x_min":0,"x_max":0,"o":"m 43 349 b 426 -17 43 129 204 -17 b 808 349 647 -17 808 129 b 426 715 808 568 647 715 b 43 349 204 715 43 568 z m 258 350 b 426 524 258 454 326 524 b 593 350 525 524 593 454 b 426 175 593 244 525 175 b 258 350 326 175 258 244 z "},"ó":{"ha":851,"x_min":0,"x_max":0,"o":"m 657 1010 l 465 1010 l 349 779 l 503 779 z m 43 349 b 426 -17 43 129 204 -17 b 808 349 647 -17 808 129 b 426 715 808 568 647 715 b 43 349 204 715 43 568 z m 258 350 b 426 524 258 454 326 524 b 593 350 525 524 593 454 b 426 175 593 244 525 175 b 258 350 326 175 258 244 z "},"ô":{"ha":851,"x_min":0,"x_max":0,"o":"m 347 779 l 426 925 l 506 779 l 667 779 l 529 1024 l 324 1024 l 186 779 z m 43 349 b 426 -17 43 129 204 -17 b 808 349 647 -17 808 129 b 426 715 808 568 647 715 b 43 349 204 715 43 568 z m 258 350 b 426 524 258 454 326 524 b 593 350 525 524 593 454 b 426 175 593 244 525 175 b 258 350 326 175 258 244 z "},"ö":{"ha":851,"x_min":0,"x_max":0,"o":"m 289 789 b 396 897 347 789 396 838 b 289 1004 396 954 347 1004 b 182 897 231 1004 182 956 b 289 789 182 836 229 789 z m 564 789 b 671 897 622 789 671 838 b 564 1004 671 954 622 1004 b 457 897 506 1004 457 956 b 564 789 457 836 504 789 z m 43 349 b 426 -17 43 129 204 -17 b 808 349 647 -17 808 129 b 426 715 808 568 647 715 b 43 349 204 715 43 568 z m 258 350 b 426 524 258 454 326 524 b 593 350 525 524 593 454 b 426 175 593 244 525 175 b 258 350 326 175 258 244 z "},"ò":{"ha":851,"x_min":0,"x_max":0,"o":"m 503 779 l 386 1010 l 194 1010 l 349 779 z m 43 349 b 426 -17 43 129 204 -17 b 808 349 647 -17 808 129 b 426 715 808 568 647 715 b 43 349 204 715 43 568 z m 258 350 b 426 524 258 454 326 524 b 593 350 525 524 593 454 b 426 175 593 244 525 175 b 258 350 326 175 258 244 z "},"ő":{"ha":851,"x_min":0,"x_max":0,"o":"m 539 1010 l 368 1010 l 238 779 l 385 779 z m 783 1010 l 613 1010 l 482 779 l 629 779 z m 43 349 b 426 -17 43 129 204 -17 b 808 349 647 -17 808 129 b 426 715 808 568 647 715 b 43 349 204 715 43 568 z m 258 350 b 426 524 258 454 326 524 b 593 350 525 524 593 454 b 426 175 593 244 525 175 b 258 350 326 175 258 244 z "},"ō":{"ha":851,"x_min":0,"x_max":0,"o":"m 225 815 l 628 815 l 628 960 l 225 960 z m 43 349 b 426 -17 43 129 204 -17 b 808 349 647 -17 808 129 b 426 715 808 568 647 715 b 43 349 204 715 43 568 z m 258 350 b 426 524 258 454 326 524 b 593 350 525 524 593 454 b 426 175 593 244 525 175 b 258 350 326 175 258 244 z "},"ø":{"ha":851,"x_min":0,"x_max":0,"o":"m 43 349 b 164 72 43 232 89 136 l 76 -68 l 268 -68 l 308 -1 b 426 -17 346 -11 385 -17 b 808 349 647 -17 808 129 b 692 622 808 463 765 557 l 776 760 l 594 760 l 556 697 b 426 715 515 708 472 715 b 43 349 204 715 43 568 z m 258 350 b 426 524 258 454 326 524 b 446 522 433 524 440 524 l 281 257 b 258 350 267 283 258 314 z m 593 350 b 426 175 593 244 525 175 b 418 175 418 175 418 175 l 576 433 b 593 350 588 410 593 381 z "},"ǿ":{"ha":851,"x_min":0,"x_max":0,"o":"m 657 1010 l 465 1010 l 349 779 l 503 779 z m 43 349 b 164 72 43 232 89 136 l 76 -68 l 268 -68 l 308 -1 b 426 -17 346 -11 385 -17 b 808 349 647 -17 808 129 b 692 622 808 463 765 557 l 776 760 l 594 760 l 556 697 b 426 715 515 708 472 715 b 43 349 204 715 43 568 z m 258 350 b 426 524 258 454 326 524 b 446 522 433 524 440 524 l 281 257 b 258 350 267 283 258 314 z m 593 350 b 426 175 593 244 525 175 b 418 175 418 175 418 175 l 576 433 b 593 350 588 410 593 381 z "},"õ":{"ha":851,"x_min":0,"x_max":0,"o":"m 282 783 b 331 868 282 836 294 868 b 544 782 383 868 439 782 b 690 1007 643 782 706 854 l 571 1007 b 521 921 571 957 557 921 b 307 1007 461 921 408 1007 b 163 782 206 1007 146 918 z m 43 349 b 426 -17 43 129 204 -17 b 808 349 647 -17 808 129 b 426 715 808 568 647 715 b 43 349 204 715 43 568 z m 258 350 b 426 524 258 454 326 524 b 593 350 525 524 593 454 b 426 175 593 244 525 175 b 258 350 326 175 258 244 z "},"œ":{"ha":1358,"x_min":0,"x_max":0,"o":"m 43 349 b 426 -17 43 129 204 -17 b 700 90 540 -17 635 22 b 963 -18 764 22 856 -18 b 1315 235 1153 -18 1290 81 l 1119 235 b 967 156 1104 185 1047 156 b 808 290 872 156 821 199 l 1313 293 l 1313 347 b 958 717 1313 574 1176 717 b 697 610 851 717 761 678 b 426 715 633 676 539 715 b 43 349 204 715 43 568 z m 960 543 b 1100 422 1046 543 1100 496 l 811 422 b 960 543 828 506 875 543 z m 258 350 b 426 524 258 454 326 524 b 593 350 525 524 593 454 b 426 175 593 244 525 175 b 258 350 326 175 258 244 z "},"p":{"ha":889,"x_min":0,"x_max":0,"o":"m 81 -333 l 294 -333 l 294 69 b 519 -19 335 17 424 -19 b 846 358 726 -19 846 139 b 518 717 846 582 711 717 b 293 610 419 717 332 674 l 282 694 l 81 694 z m 296 347 b 465 521 296 451 365 521 b 631 347 567 521 631 450 b 465 174 631 244 567 174 b 296 347 365 174 296 243 z "},"þ":{"ha":889,"x_min":0,"x_max":0,"o":"m 846 356 b 528 718 846 576 719 718 b 294 614 428 718 336 676 l 294 1047 l 81 1047 l 81 -333 l 294 -333 l 294 69 b 519 -19 335 17 424 -19 b 846 356 726 -19 846 136 z m 631 351 b 465 174 631 249 567 174 b 296 351 365 174 296 247 b 465 525 296 456 365 525 b 631 351 567 525 631 454 z "},"q":{"ha":889,"x_min":0,"x_max":0,"o":"m 43 358 b 369 -19 43 139 163 -19 b 594 69 465 -19 554 17 l 594 -333 l 808 -333 l 808 694 l 607 694 l 596 610 b 371 717 557 674 469 717 b 43 358 178 717 43 582 z m 258 347 b 424 521 258 450 322 521 b 593 347 524 521 593 451 b 424 174 593 243 524 174 b 258 347 322 174 258 244 z "},"r":{"ha":586,"x_min":0,"x_max":0,"o":"m 558 694 b 476 704 529 701 501 704 b 293 590 383 704 322 658 l 282 693 l 81 693 l 81 0 l 294 0 l 294 301 b 490 493 294 439 368 493 l 558 493 z "},"ŕ":{"ha":586,"x_min":0,"x_max":0,"o":"m 546 1010 l 354 1010 l 238 779 l 392 779 z m 558 694 b 476 704 529 701 501 704 b 293 590 383 704 322 658 l 282 693 l 81 693 l 81 0 l 294 0 l 294 301 b 490 493 294 439 368 493 l 558 493 z "},"ř":{"ha":586,"x_min":0,"x_max":0,"o":"m 213 779 l 418 779 l 556 1024 l 394 1024 l 315 878 l 236 1024 l 75 1024 z m 558 694 b 476 704 529 701 501 704 b 293 590 383 704 322 658 l 282 693 l 81 693 l 81 0 l 294 0 l 294 301 b 490 493 294 439 368 493 l 558 493 z "},"ŗ":{"ha":586,"x_min":0,"x_max":0,"o":"m 558 694 b 476 704 529 701 501 704 b 293 590 383 704 322 658 l 282 693 l 81 693 l 81 0 l 294 0 l 294 301 b 490 493 294 439 368 493 l 558 493 z m 290 -169 b 185 -47 290 -96 249 -47 b 83 -142 124 -47 83 -85 b 168 -231 83 -192 117 -231 b 207 -221 183 -231 197 -228 b 94 -274 204 -264 168 -283 l 94 -339 b 290 -169 226 -357 290 -274 z "},"s":{"ha":667,"x_min":0,"x_max":0,"o":"m 31 219 b 329 -18 31 79 146 -18 b 636 221 510 -18 636 72 b 460 410 636 332 574 385 l 331 438 b 256 499 282 449 256 467 b 335 561 256 536 286 561 b 415 482 386 561 415 529 l 618 482 b 344 717 618 622 506 717 b 54 489 178 717 54 633 b 244 283 54 367 117 311 l 372 256 b 435 201 424 244 435 222 b 338 142 435 165 404 142 b 233 219 272 142 236 171 z "},"ś":{"ha":667,"x_min":0,"x_max":0,"o":"m 576 1010 l 385 1010 l 268 779 l 422 779 z m 31 219 b 329 -18 31 79 146 -18 b 636 221 510 -18 636 72 b 460 410 636 332 574 385 l 331 438 b 256 499 282 449 256 467 b 335 561 256 536 286 561 b 415 482 386 561 415 529 l 618 482 b 344 717 618 622 506 717 b 54 489 178 717 54 633 b 244 283 54 367 117 311 l 372 256 b 435 201 424 244 435 222 b 338 142 435 165 404 142 b 233 219 272 142 236 171 z "},"š":{"ha":667,"x_min":0,"x_max":0,"o":"m 243 779 l 449 779 l 586 1024 l 425 1024 l 346 878 l 267 1024 l 106 1024 z m 31 219 b 329 -18 31 79 146 -18 b 636 221 510 -18 636 72 b 460 410 636 332 574 385 l 331 438 b 256 499 282 449 256 467 b 335 561 256 536 286 561 b 415 482 386 561 415 529 l 618 482 b 344 717 618 622 506 717 b 54 489 178 717 54 633 b 244 283 54 367 117 311 l 372 256 b 435 201 424 244 435 222 b 338 142 435 165 404 142 b 233 219 272 142 236 171 z "},"ş":{"ha":667,"x_min":0,"x_max":0,"o":"m 31 219 b 282 -15 31 92 126 0 l 249 -85 l 268 -139 b 336 -128 288 -132 308 -128 b 397 -176 375 -128 397 -146 b 319 -233 397 -210 374 -233 b 218 -207 281 -233 253 -222 l 218 -296 b 331 -322 249 -311 282 -322 b 507 -176 429 -322 507 -271 b 386 -58 507 -90 442 -58 b 336 -67 367 -58 350 -61 l 363 -17 b 636 221 525 -7 636 82 b 460 410 636 332 574 385 l 331 438 b 256 499 282 449 256 467 b 335 561 256 536 286 561 b 415 482 386 561 415 529 l 618 482 b 344 717 618 622 506 717 b 54 489 178 717 54 633 b 244 283 54 367 117 311 l 372 256 b 435 201 424 244 435 222 b 338 142 435 165 404 142 b 233 219 272 142 236 171 z "},"ŝ":{"ha":667,"x_min":0,"x_max":0,"o":"m 267 779 l 346 925 l 425 779 l 586 779 l 449 1024 l 243 1024 l 106 779 z m 31 219 b 329 -18 31 79 146 -18 b 636 221 510 -18 636 72 b 460 410 636 332 574 385 l 331 438 b 256 499 282 449 256 467 b 335 561 256 536 286 561 b 415 482 386 561 415 529 l 618 482 b 344 717 618 622 506 717 b 54 489 178 717 54 633 b 244 283 54 367 117 311 l 372 256 b 435 201 424 244 435 222 b 338 142 435 165 404 142 b 233 219 272 142 236 171 z "},"ș":{"ha":667,"x_min":0,"x_max":0,"o":"m 31 219 b 329 -18 31 79 146 -18 b 636 221 510 -18 636 72 b 460 410 636 332 574 385 l 331 438 b 256 499 282 449 256 467 b 335 561 256 536 286 561 b 415 482 386 561 415 529 l 618 482 b 344 717 618 622 506 717 b 54 489 178 717 54 633 b 244 283 54 367 117 311 l 372 256 b 435 201 424 244 435 222 b 338 142 435 165 404 142 b 233 219 272 142 236 171 z m 433 -169 b 328 -47 433 -96 392 -47 b 226 -142 267 -47 226 -85 b 311 -231 226 -192 260 -231 b 350 -221 326 -231 340 -228 b 238 -274 347 -264 311 -283 l 238 -339 b 433 -169 369 -357 433 -274 z "},"ß":{"ha":853,"x_min":0,"x_max":0,"o":"m 294 0 l 294 738 b 422 872 294 818 346 872 b 542 763 496 872 542 835 b 425 649 542 690 499 649 l 364 649 l 364 479 l 425 479 b 607 333 544 479 607 429 b 457 194 607 244 553 194 l 361 194 l 361 10 b 461 0 386 4 425 0 b 822 324 682 0 822 126 b 658 583 822 443 769 526 b 754 774 718 621 754 692 b 421 1047 754 944 629 1047 b 81 714 211 1047 81 918 l 81 0 z "},"t":{"ha":508,"x_min":0,"x_max":0,"o":"m 361 0 l 361 517 l 493 517 l 493 694 l 361 694 l 361 910 l 147 910 l 147 694 l 15 694 l 15 517 l 147 517 l 147 0 z "},"ŧ":{"ha":508,"x_min":0,"x_max":0,"o":"m 361 0 l 361 263 l 461 263 l 461 426 l 361 426 l 361 517 l 493 517 l 493 694 l 361 694 l 361 910 l 147 910 l 147 694 l 15 694 l 15 517 l 147 517 l 147 426 l 47 426 l 47 263 l 147 263 l 147 0 z "},"ť":{"ha":508,"x_min":0,"x_max":0,"o":"m 399 756 l 525 756 l 569 1028 l 399 1028 z m 361 0 l 361 517 l 493 517 l 493 694 l 361 694 l 361 910 l 147 910 l 147 694 l 15 694 l 15 517 l 147 517 l 147 0 z "},"ţ":{"ha":508,"x_min":0,"x_max":0,"o":"m 150 -296 b 263 -322 181 -311 214 -322 b 439 -176 361 -322 439 -271 b 318 -58 439 -90 374 -58 b 268 -67 299 -58 282 -61 l 303 0 l 361 0 l 361 517 l 493 517 l 493 694 l 361 694 l 361 910 l 147 910 l 147 694 l 15 694 l 15 517 l 147 517 l 147 0 l 221 0 l 181 -85 l 200 -139 b 268 -128 219 -132 240 -128 b 329 -176 307 -128 329 -146 b 251 -233 329 -210 306 -233 b 150 -207 213 -233 185 -222 z "},"ț":{"ha":508,"x_min":0,"x_max":0,"o":"m 361 0 l 361 517 l 493 517 l 493 694 l 361 694 l 361 910 l 147 910 l 147 694 l 15 694 l 15 517 l 147 517 l 147 0 z m 365 -169 b 260 -47 365 -96 324 -47 b 158 -142 199 -47 158 -85 b 243 -231 158 -192 192 -231 b 282 -221 258 -231 272 -228 b 169 -274 279 -264 243 -283 l 169 -339 b 365 -169 301 -357 365 -274 z "},"u":{"ha":836,"x_min":0,"x_max":0,"o":"m 542 694 l 542 333 b 413 172 542 219 504 172 b 286 336 325 172 286 222 l 286 694 l 72 694 l 72 258 b 328 -18 72 88 169 -18 b 540 78 411 -18 497 21 l 554 0 l 756 0 l 756 694 z "},"ú":{"ha":836,"x_min":0,"x_max":0,"o":"m 644 1010 l 453 1010 l 336 779 l 490 779 z m 542 694 l 542 333 b 413 172 542 219 504 172 b 286 336 325 172 286 222 l 286 694 l 72 694 l 72 258 b 328 -18 72 88 169 -18 b 540 78 411 -18 497 21 l 554 0 l 756 0 l 756 694 z "},"û":{"ha":836,"x_min":0,"x_max":0,"o":"m 335 779 l 414 925 l 493 779 l 654 779 l 517 1024 l 311 1024 l 174 779 z m 542 694 l 542 333 b 413 172 542 219 504 172 b 286 336 325 172 286 222 l 286 694 l 72 694 l 72 258 b 328 -18 72 88 169 -18 b 540 78 411 -18 497 21 l 554 0 l 756 0 l 756 694 z "},"ü":{"ha":836,"x_min":0,"x_max":0,"o":"m 276 789 b 383 897 335 789 383 838 b 276 1004 383 954 335 1004 b 169 897 218 1004 169 956 b 276 789 169 836 217 789 z m 551 789 b 658 897 610 789 658 838 b 551 1004 658 954 610 1004 b 444 897 493 1004 444 956 b 551 789 444 836 492 789 z m 542 694 l 542 333 b 413 172 542 219 504 172 b 286 336 325 172 286 222 l 286 694 l 72 694 l 72 258 b 328 -18 72 88 169 -18 b 540 78 411 -18 497 21 l 554 0 l 756 0 l 756 694 z "},"ù":{"ha":836,"x_min":0,"x_max":0,"o":"m 490 779 l 374 1010 l 182 1010 l 336 779 z m 542 694 l 542 333 b 413 172 542 219 504 172 b 286 336 325 172 286 222 l 286 694 l 72 694 l 72 258 b 328 -18 72 88 169 -18 b 540 78 411 -18 497 21 l 554 0 l 756 0 l 756 694 z "},"ű":{"ha":836,"x_min":0,"x_max":0,"o":"m 526 1010 l 356 1010 l 225 779 l 372 779 z m 771 1010 l 600 1010 l 469 779 l 617 779 z m 542 694 l 542 333 b 413 172 542 219 504 172 b 286 336 325 172 286 222 l 286 694 l 72 694 l 72 258 b 328 -18 72 88 169 -18 b 540 78 411 -18 497 21 l 554 0 l 756 0 l 756 694 z "},"ū":{"ha":836,"x_min":0,"x_max":0,"o":"m 213 815 l 615 815 l 615 960 l 213 960 z m 542 694 l 542 333 b 413 172 542 219 504 172 b 286 336 325 172 286 222 l 286 694 l 72 694 l 72 258 b 328 -18 72 88 169 -18 b 540 78 411 -18 497 21 l 554 0 l 756 0 l 756 694 z "},"ų":{"ha":836,"x_min":0,"x_max":0,"o":"m 628 0 b 503 -161 542 -32 503 -97 b 663 -310 503 -242 564 -310 b 744 -294 693 -310 719 -306 l 744 -158 b 701 -168 729 -165 714 -168 b 643 -112 665 -168 643 -143 b 754 0 643 -74 676 -26 l 756 0 l 756 694 l 542 694 l 542 333 b 413 172 542 219 504 172 b 286 336 325 172 286 222 l 286 694 l 72 694 l 72 258 b 328 -18 72 88 169 -18 b 540 78 411 -18 497 21 l 554 0 z "},"ů":{"ha":836,"x_min":0,"x_max":0,"o":"m 414 754 b 610 947 526 754 610 838 b 414 1142 610 1057 525 1142 b 218 947 303 1142 218 1057 b 414 754 218 835 300 754 z m 414 863 b 332 950 364 863 332 897 b 414 1033 332 1000 365 1033 b 496 950 463 1033 496 999 b 414 863 496 897 464 863 z m 542 694 l 542 333 b 413 172 542 219 504 172 b 286 336 325 172 286 222 l 286 694 l 72 694 l 72 258 b 328 -18 72 88 169 -18 b 540 78 411 -18 497 21 l 554 0 l 756 0 l 756 694 z "},"ũ":{"ha":836,"x_min":0,"x_max":0,"o":"m 269 783 b 318 868 269 836 282 868 b 532 782 371 868 426 782 b 678 1007 631 782 693 854 l 558 1007 b 508 921 558 957 544 921 b 294 1007 449 921 396 1007 b 150 782 193 1007 133 918 z m 542 694 l 542 333 b 413 172 542 219 504 172 b 286 336 325 172 286 222 l 286 694 l 72 694 l 72 258 b 328 -18 72 88 169 -18 b 540 78 411 -18 497 21 l 554 0 l 756 0 l 756 694 z "},"v":{"ha":786,"x_min":0,"x_max":0,"o":"m 278 0 l 489 0 l 779 694 l 557 694 l 464 451 b 390 231 429 361 399 271 b 322 451 385 263 357 350 l 238 694 l 7 694 z "},"w":{"ha":1154,"x_min":0,"x_max":0,"o":"m 238 0 l 446 0 l 513 217 b 575 446 557 363 569 417 b 632 221 579 417 597 335 l 699 0 l 897 0 l 1140 694 l 914 694 l 847 468 b 799 271 840 443 807 321 b 751 468 792 315 758 444 l 686 694 l 467 694 l 396 468 b 346 271 365 371 358 344 b 303 468 335 340 319 408 l 239 694 l 14 694 z "},"ẃ":{"ha":1154,"x_min":0,"x_max":0,"o":"m 810 1010 l 618 1010 l 501 779 l 656 779 z m 238 0 l 446 0 l 513 217 b 575 446 557 363 569 417 b 632 221 579 417 597 335 l 699 0 l 897 0 l 1140 694 l 914 694 l 847 468 b 799 271 840 443 807 321 b 751 468 792 315 758 444 l 686 694 l 467 694 l 396 468 b 346 271 365 371 358 344 b 303 468 335 340 319 408 l 239 694 l 14 694 z "},"ŵ":{"ha":1154,"x_min":0,"x_max":0,"o":"m 500 779 l 579 925 l 658 779 l 819 779 l 682 1024 l 476 1024 l 339 779 z m 238 0 l 446 0 l 513 217 b 575 446 557 363 569 417 b 632 221 579 417 597 335 l 699 0 l 897 0 l 1140 694 l 914 694 l 847 468 b 799 271 840 443 807 321 b 751 468 792 315 758 444 l 686 694 l 467 694 l 396 468 b 346 271 365 371 358 344 b 303 468 335 340 319 408 l 239 694 l 14 694 z "},"ẅ":{"ha":1154,"x_min":0,"x_max":0,"o":"m 442 789 b 549 897 500 789 549 838 b 442 1004 549 954 500 1004 b 335 897 383 1004 335 956 b 442 789 335 836 382 789 z m 717 789 b 824 897 775 789 824 838 b 717 1004 824 954 775 1004 b 610 897 658 1004 610 956 b 717 789 610 836 657 789 z m 238 0 l 446 0 l 513 217 b 575 446 557 363 569 417 b 632 221 579 417 597 335 l 699 0 l 897 0 l 1140 694 l 914 694 l 847 468 b 799 271 840 443 807 321 b 751 468 792 315 758 444 l 686 694 l 467 694 l 396 468 b 346 271 365 371 358 344 b 303 468 335 340 319 408 l 239 694 l 14 694 z "},"ẁ":{"ha":1154,"x_min":0,"x_max":0,"o":"m 656 779 l 539 1010 l 347 1010 l 501 779 z m 238 0 l 446 0 l 513 217 b 575 446 557 363 569 417 b 632 221 579 417 597 335 l 699 0 l 897 0 l 1140 694 l 914 694 l 847 468 b 799 271 840 443 807 321 b 751 468 792 315 758 444 l 686 694 l 467 694 l 396 468 b 346 271 365 371 358 344 b 303 468 335 340 319 408 l 239 694 l 14 694 z "},"x":{"ha":761,"x_min":0,"x_max":0,"o":"m 257 0 l 374 200 l 493 0 l 739 0 l 518 340 l 747 694 l 508 694 l 389 483 l 261 694 l 14 694 l 247 336 l 14 0 z "},"y":{"ha":785,"x_min":0,"x_max":0,"o":"m 25 -333 b 167 -353 67 -346 115 -353 b 425 -151 289 -353 367 -293 l 778 694 l 556 694 l 388 249 l 236 694 l 7 694 l 286 -24 l 274 -57 b 143 -154 246 -132 215 -154 l 25 -154 z "},"ý":{"ha":785,"x_min":0,"x_max":0,"o":"m 635 1010 l 443 1010 l 326 779 l 481 779 z m 25 -333 b 167 -353 67 -346 115 -353 b 425 -151 289 -353 367 -293 l 778 694 l 556 694 l 388 249 l 236 694 l 7 694 l 286 -24 l 274 -57 b 143 -154 246 -132 215 -154 l 25 -154 z "},"ŷ":{"ha":785,"x_min":0,"x_max":0,"o":"m 325 779 l 404 925 l 483 779 l 644 779 l 507 1024 l 301 1024 l 164 779 z m 25 -333 b 167 -353 67 -346 115 -353 b 425 -151 289 -353 367 -293 l 778 694 l 556 694 l 388 249 l 236 694 l 7 694 l 286 -24 l 274 -57 b 143 -154 246 -132 215 -154 l 25 -154 z "},"ÿ":{"ha":785,"x_min":0,"x_max":0,"o":"m 267 789 b 374 897 325 789 374 838 b 267 1004 374 954 325 1004 b 160 897 208 1004 160 956 b 267 789 160 836 207 789 z m 542 789 b 649 897 600 789 649 838 b 542 1004 649 954 600 1004 b 435 897 483 1004 435 956 b 542 789 435 836 482 789 z m 25 -333 b 167 -353 67 -346 115 -353 b 425 -151 289 -353 367 -293 l 778 694 l 556 694 l 388 249 l 236 694 l 7 694 l 286 -24 l 274 -57 b 143 -154 246 -132 215 -154 l 25 -154 z "},"ỳ":{"ha":785,"x_min":0,"x_max":0,"o":"m 481 779 l 364 1010 l 172 1010 l 326 779 z m 25 -333 b 167 -353 67 -346 115 -353 b 425 -151 289 -353 367 -293 l 778 694 l 556 694 l 388 249 l 236 694 l 7 694 l 286 -24 l 274 -57 b 143 -154 246 -132 215 -154 l 25 -154 z "},"z":{"ha":682,"x_min":0,"x_max":0,"o":"m 632 0 l 632 178 l 313 178 l 632 517 l 632 694 l 50 694 l 50 517 l 361 517 l 50 178 l 50 0 z "},"ź":{"ha":682,"x_min":0,"x_max":0,"o":"m 572 1010 l 381 1010 l 264 779 l 418 779 z m 632 0 l 632 178 l 313 178 l 632 517 l 632 694 l 50 694 l 50 517 l 361 517 l 50 178 l 50 0 z "},"ž":{"ha":682,"x_min":0,"x_max":0,"o":"m 239 779 l 444 779 l 582 1024 l 421 1024 l 342 878 l 263 1024 l 101 1024 z m 632 0 l 632 178 l 313 178 l 632 517 l 632 694 l 50 694 l 50 517 l 361 517 l 50 178 l 50 0 z "},"ż":{"ha":682,"x_min":0,"x_max":0,"o":"m 340 789 b 454 903 403 789 454 840 b 340 1017 454 964 403 1017 b 228 903 279 1017 228 965 b 340 789 228 839 278 789 z m 632 0 l 632 178 l 313 178 l 632 517 l 632 694 l 50 694 l 50 517 l 361 517 l 50 178 l 50 0 z "},"ﬀ":{"ha":975,"x_min":0,"x_max":0,"o":"m 15 694 l 15 517 l 111 517 l 111 0 l 325 0 l 325 517 l 581 517 l 581 0 l 794 0 l 794 517 l 960 517 l 960 694 l 794 694 l 794 750 b 900 856 794 810 813 856 l 960 856 l 960 1039 b 864 1047 926 1044 893 1047 b 581 750 688 1047 581 957 l 581 694 l 325 694 l 325 750 b 431 856 325 810 343 856 l 490 856 l 490 1039 b 394 1047 457 1044 424 1047 b 111 750 218 1047 111 957 l 111 694 z "},"ﬃ":{"ha":1347,"x_min":0,"x_max":0,"o":"m 15 694 l 15 517 l 111 517 l 111 0 l 325 0 l 325 517 l 581 517 l 581 0 l 794 0 l 794 517 l 1050 517 l 1050 0 l 1265 0 l 1265 694 l 794 694 l 794 750 b 886 856 794 810 813 856 l 946 856 l 946 1039 b 850 1047 913 1044 879 1047 b 581 750 688 1047 581 957 l 581 694 l 325 694 l 325 750 b 431 856 325 810 343 856 l 490 856 l 490 1039 b 394 1047 457 1044 424 1047 b 111 750 218 1047 111 957 l 111 694 z m 1158 803 b 1279 925 1225 803 1279 857 b 1158 1046 1279 993 1225 1046 b 1036 925 1090 1046 1036 993 b 1158 803 1036 857 1090 803 z "},"ﬄ":{"ha":1344,"x_min":0,"x_max":0,"o":"m 15 694 l 15 517 l 111 517 l 111 0 l 325 0 l 325 517 l 581 517 l 581 0 l 794 0 l 794 517 l 1050 517 l 1050 0 l 1264 0 l 1264 1047 l 1050 1047 l 1050 694 l 794 694 l 794 750 b 900 856 794 810 813 856 l 960 856 l 960 1039 b 864 1047 926 1044 893 1047 b 581 750 688 1047 581 957 l 581 694 l 325 694 l 325 750 b 431 856 325 810 343 856 l 490 856 l 490 1039 b 394 1047 457 1044 424 1047 b 111 750 218 1047 111 957 l 111 694 z "},"ﬁ":{"ha":878,"x_min":0,"x_max":0,"o":"m 581 0 l 796 0 l 796 694 l 325 694 l 325 750 b 417 856 325 810 343 856 l 476 856 l 476 1039 b 381 1047 443 1044 410 1047 b 111 750 218 1047 111 957 l 111 694 l 15 694 l 15 517 l 111 517 l 111 0 l 325 0 l 325 517 l 581 517 z m 689 803 b 810 925 756 803 810 857 b 689 1046 810 993 756 1046 b 567 925 621 1046 567 993 b 689 803 567 857 621 803 z "},"ﬂ":{"ha":875,"x_min":0,"x_max":0,"o":"m 15 694 l 15 517 l 111 517 l 111 0 l 325 0 l 325 517 l 581 517 l 581 0 l 794 0 l 794 1047 l 581 1047 l 581 694 l 325 694 l 325 750 b 413 856 325 810 339 856 l 472 856 l 472 1039 b 376 1047 439 1044 406 1047 b 111 750 214 1047 111 957 l 111 694 z "},"Ω":{"ha":926,"x_min":0,"x_max":0,"o":"m 419 0 l 419 156 b 283 363 338 186 283 263 b 464 539 283 469 361 539 b 644 364 567 539 644 469 b 508 156 644 272 596 193 l 508 0 l 850 0 l 850 156 l 733 156 b 828 388 790 215 828 293 b 465 717 828 557 694 717 b 100 386 242 717 100 563 b 193 156 100 292 138 215 l 76 156 l 76 0 z "},"π":{"ha":928,"x_min":0,"x_max":0,"o":"m 139 0 l 353 0 l 353 522 l 547 522 l 547 197 b 742 -6 547 57 607 -6 b 892 7 781 -6 838 -1 l 892 185 l 831 185 b 761 243 783 185 761 203 l 761 522 l 892 522 l 892 694 l 18 694 l 18 522 l 139 522 z "},"₀":{"ha":603,"x_min":0,"x_max":0,"o":"m 31 168 b 301 -150 31 -24 131 -150 b 572 168 465 -150 572 -24 b 303 492 572 360 474 492 b 31 168 140 492 31 360 z m 169 168 b 303 367 169 301 218 367 b 433 168 386 367 433 301 b 303 -26 433 38 386 -26 b 169 168 218 -26 169 38 z "},"₁":{"ha":383,"x_min":0,"x_max":0,"o":"m 186 354 l 186 -139 l 325 -139 l 325 479 l 28 479 l 28 354 z "},"₂":{"ha":511,"x_min":0,"x_max":0,"o":"m 481 -139 l 481 -14 l 257 -14 l 368 81 b 475 282 438 140 475 201 b 254 492 475 413 392 492 b 31 261 121 492 36 404 l 168 261 b 256 367 168 329 200 367 b 336 274 308 367 336 335 b 271 157 336 226 317 194 l 42 -36 l 42 -139 z "},"₃":{"ha":504,"x_min":0,"x_max":0,"o":"m 457 368 l 457 479 l 53 479 l 53 356 l 286 356 l 146 239 l 146 149 l 236 149 b 336 61 308 149 336 108 b 251 -25 336 8 301 -25 b 163 65 199 -25 163 6 l 25 65 b 247 -150 25 -76 126 -150 b 474 60 372 -150 474 -71 b 317 249 474 171 404 231 z "},"₄":{"ha":546,"x_min":0,"x_max":0,"o":"m 535 -31 l 535 90 l 460 90 l 460 479 l 288 479 l 24 93 l 24 -31 l 326 -31 l 326 -139 l 460 -139 l 460 -31 z m 178 90 l 326 314 l 326 90 z "},"₅":{"ha":511,"x_min":0,"x_max":0,"o":"m 21 65 b 257 -149 21 -60 119 -149 b 490 76 396 -149 490 -58 b 281 292 490 201 403 292 b 199 275 249 292 222 286 l 222 356 l 451 356 l 451 479 l 114 479 l 35 147 l 163 131 b 253 181 181 165 208 181 b 351 75 314 181 351 140 b 254 -25 351 11 315 -25 b 158 65 196 -25 158 10 z "},"₆":{"ha":547,"x_min":0,"x_max":0,"o":"m 132 324 b 31 83 54 218 31 161 b 275 -150 31 -49 133 -150 b 517 83 415 -150 517 -56 b 299 293 517 213 428 293 b 261 288 286 293 274 292 l 415 494 l 258 494 z m 172 76 b 275 182 172 136 214 182 b 376 76 335 182 376 136 b 275 -26 376 17 335 -26 b 172 76 214 -26 172 17 z "},"₇":{"ha":486,"x_min":0,"x_max":0,"o":"m 461 356 l 461 479 l 25 479 l 25 356 l 329 356 l 126 -139 l 263 -139 z "},"₈":{"ha":547,"x_min":0,"x_max":0,"o":"m 31 32 b 272 -149 31 -79 121 -149 b 517 32 425 -149 517 -79 b 403 190 517 111 471 172 b 486 318 453 208 486 256 b 275 492 486 422 406 492 b 63 319 142 492 63 419 b 139 192 63 260 93 213 b 31 32 72 169 31 107 z m 179 306 b 272 374 179 343 208 374 b 365 306 335 374 365 343 b 272 242 365 267 335 242 b 179 306 210 242 179 267 z m 168 50 b 274 126 168 100 210 126 b 378 50 338 126 378 100 b 272 -25 378 1 340 -25 b 168 50 207 -25 168 1 z "},"₉":{"ha":547,"x_min":0,"x_max":0,"o":"m 415 32 b 517 272 493 138 517 194 b 272 506 517 404 414 506 b 31 272 132 506 31 411 b 249 63 31 143 119 63 b 286 68 261 63 274 64 l 132 -139 l 289 -139 z m 375 279 b 272 174 375 219 333 174 b 171 279 213 174 171 219 b 272 382 171 339 213 382 b 375 279 333 382 375 339 z "},"⁰":{"ha":600,"x_min":0,"x_max":0,"o":"m 31 765 b 301 447 31 574 131 447 b 572 765 465 447 572 574 b 303 1089 572 957 474 1089 b 31 765 140 1089 31 957 z m 169 765 b 303 964 169 899 218 964 b 433 765 386 964 433 899 b 303 571 433 635 386 571 b 169 765 218 571 169 635 z "},"¹":{"ha":383,"x_min":0,"x_max":0,"o":"m 186 951 l 186 458 l 325 458 l 325 1076 l 28 1076 l 28 951 z "},"²":{"ha":511,"x_min":0,"x_max":0,"o":"m 481 458 l 481 583 l 257 583 l 368 678 b 475 879 438 738 475 799 b 254 1089 475 1010 392 1089 b 31 858 121 1089 36 1001 l 168 858 b 256 964 168 926 200 964 b 336 871 308 964 336 932 b 271 754 336 824 317 792 l 42 561 l 42 458 z "},"³":{"ha":504,"x_min":0,"x_max":0,"o":"m 457 965 l 457 1076 l 53 1076 l 53 953 l 286 953 l 146 836 l 146 746 l 236 746 b 336 658 308 746 336 706 b 251 572 336 606 301 572 b 163 663 199 572 163 603 l 25 663 b 247 447 25 521 126 447 b 474 657 372 447 474 526 b 317 846 474 768 404 828 z "},"⁴":{"ha":532,"x_min":0,"x_max":0,"o":"m 535 567 l 535 688 l 460 688 l 460 1076 l 288 1076 l 24 690 l 24 567 l 326 567 l 326 458 l 460 458 l 460 567 z m 178 688 l 326 911 l 326 688 z "},"⁵":{"ha":511,"x_min":0,"x_max":0,"o":"m 21 663 b 257 449 21 538 119 449 b 490 674 396 449 490 539 b 281 889 490 799 403 889 b 199 872 249 889 222 883 l 222 953 l 451 953 l 451 1076 l 114 1076 l 35 744 l 163 728 b 253 778 181 763 208 778 b 351 672 314 778 351 738 b 254 572 351 608 315 572 b 158 663 196 572 158 607 z "},"⁶":{"ha":547,"x_min":0,"x_max":0,"o":"m 132 921 b 31 681 54 815 31 758 b 275 447 31 549 133 447 b 517 681 415 447 517 542 b 299 890 517 810 428 890 b 261 885 286 890 274 889 l 415 1092 l 258 1092 z m 172 674 b 275 779 172 733 214 779 b 376 674 335 779 376 733 b 275 571 376 614 335 571 b 172 674 214 571 172 614 z "},"⁷":{"ha":486,"x_min":0,"x_max":0,"o":"m 461 953 l 461 1076 l 25 1076 l 25 953 l 329 953 l 126 458 l 263 458 z "},"⁸":{"ha":547,"x_min":0,"x_max":0,"o":"m 31 629 b 272 449 31 518 121 449 b 517 629 425 449 517 518 b 403 788 517 708 471 769 b 486 915 453 806 486 853 b 275 1089 486 1019 406 1089 b 63 917 142 1089 63 1017 b 139 789 63 857 93 810 b 31 629 72 767 31 704 z m 179 903 b 272 971 179 940 208 971 b 365 903 335 971 365 940 b 272 839 365 864 335 839 b 179 903 210 839 179 864 z m 168 647 b 274 724 168 697 210 724 b 378 647 338 724 378 697 b 272 572 378 599 340 572 b 168 647 207 572 168 599 z "},"⁹":{"ha":547,"x_min":0,"x_max":0,"o":"m 415 629 b 517 869 493 735 517 792 b 272 1103 517 1001 414 1103 b 31 869 132 1103 31 1008 b 249 660 31 740 119 660 b 286 665 261 660 274 661 l 132 458 l 289 458 z m 375 876 b 272 771 375 817 333 771 b 171 876 213 771 171 817 b 272 979 171 936 213 979 b 375 876 333 979 375 936 z "},"⁄":{"ha":265,"x_min":0,"x_max":0,"o":"m 550 986 l 383 986 l -285 0 l -118 0 z "},"½":{"ha":1122,"x_min":0,"x_max":0,"o":"m 153 919 l 153 511 l 271 511 l 271 1028 l 19 1028 l 19 919 z m 949 986 l 782 986 l 114 0 l 281 0 z m 1092 0 l 1092 107 l 908 107 l 963 150 b 1074 349 1036 208 1074 275 b 889 526 1074 458 1004 526 b 694 342 774 526 694 450 l 814 342 b 888 419 814 390 842 419 b 954 342 929 419 954 390 b 882 221 954 300 931 260 l 711 88 l 711 0 z "},"¼":{"ha":1071,"x_min":0,"x_max":0,"o":"m 153 919 l 153 511 l 271 511 l 271 1028 l 19 1028 l 19 919 z m 949 986 l 782 986 l 114 0 l 281 0 z m 860 94 l 860 0 l 972 0 l 972 94 l 1040 94 l 1040 200 l 972 200 l 972 517 l 828 517 l 611 188 l 611 94 z m 742 200 l 860 378 l 860 200 z "},"¾":{"ha":1104,"x_min":0,"x_max":0,"o":"m 25 682 b 213 501 25 563 113 501 b 401 678 317 501 401 568 b 276 832 401 767 346 815 l 388 932 l 388 1028 l 49 1028 l 49 921 l 233 921 l 125 826 l 125 750 l 200 750 b 282 679 260 750 282 717 b 215 608 282 636 256 608 b 144 682 174 608 144 633 z m 982 986 l 815 986 l 147 0 l 314 0 z m 893 94 l 893 0 l 1006 0 l 1006 94 l 1074 94 l 1074 200 l 1006 200 l 1006 517 l 861 517 l 644 188 l 644 94 z m 775 200 l 893 378 l 893 200 z "},"⅛":{"ha":1140,"x_min":0,"x_max":0,"o":"m 153 919 l 153 511 l 271 511 l 271 1028 l 19 1028 l 19 919 z m 949 986 l 782 986 l 114 0 l 281 0 z m 703 143 b 901 -8 703 51 779 -8 b 1101 143 1024 -8 1101 51 b 1008 275 1101 208 1063 260 b 1074 385 1047 292 1074 332 b 903 526 1074 471 1008 526 b 729 386 796 526 729 468 b 794 275 729 335 756 293 b 703 143 739 258 703 206 z m 831 369 b 901 424 831 400 854 424 b 971 371 947 424 971 400 b 901 318 971 340 946 318 b 831 369 856 318 831 339 z m 822 158 b 901 221 822 199 854 221 b 981 158 949 221 981 199 b 901 97 981 119 950 97 b 822 158 853 97 822 119 z "},"⅜":{"ha":1174,"x_min":0,"x_max":0,"o":"m 25 682 b 213 501 25 563 113 501 b 401 678 317 501 401 568 b 276 832 401 767 346 815 l 388 932 l 388 1028 l 49 1028 l 49 921 l 233 921 l 125 826 l 125 750 l 200 750 b 282 679 260 750 282 717 b 215 608 282 636 256 608 b 144 682 174 608 144 633 z m 982 986 l 815 986 l 147 0 l 314 0 z m 736 143 b 935 -8 736 51 813 -8 b 1135 143 1057 -8 1135 51 b 1042 275 1135 208 1096 260 b 1107 385 1081 292 1107 332 b 936 526 1107 471 1042 526 b 763 386 829 526 763 468 b 828 275 763 335 789 293 b 736 143 772 258 736 206 z m 864 369 b 935 424 864 400 888 424 b 1004 371 981 424 1004 400 b 935 318 1004 340 979 318 b 864 369 889 318 864 339 z m 856 158 b 935 221 856 199 888 221 b 1014 158 982 221 1014 199 b 935 97 1014 119 983 97 b 856 158 886 97 856 119 z "},"⅝":{"ha":1200,"x_min":0,"x_max":0,"o":"m 224 501 b 422 692 342 501 422 578 b 242 874 422 793 358 874 b 167 854 210 874 186 867 l 186 921 l 399 921 l 399 1028 l 106 1028 l 38 749 l 149 735 b 224 776 160 760 190 776 b 303 692 269 776 303 744 b 225 608 303 642 276 608 b 156 682 183 608 156 633 l 36 682 b 224 501 36 563 124 501 z m 1008 986 l 842 986 l 174 0 l 340 0 z m 763 143 b 961 -8 763 51 839 -8 b 1161 143 1083 -8 1161 51 b 1068 275 1161 208 1122 260 b 1133 385 1107 292 1133 332 b 963 526 1133 471 1068 526 b 789 386 856 526 789 468 b 854 275 789 335 815 293 b 763 143 799 258 763 206 z m 890 369 b 961 424 890 400 914 424 b 1031 371 1007 424 1031 400 b 961 318 1031 340 1006 318 b 890 369 915 318 890 339 z m 882 158 b 961 221 882 199 914 221 b 1040 158 1008 221 1040 199 b 961 97 1040 119 1010 97 b 882 158 913 97 882 119 z "},"⅞":{"ha":1096,"x_min":0,"x_max":0,"o":"m 274 921 l 97 511 l 217 511 l 390 921 l 390 1028 l 19 1028 l 19 921 z m 904 986 l 738 986 l 69 0 l 236 0 z m 658 143 b 857 -8 658 51 735 -8 b 1057 143 979 -8 1057 51 b 964 275 1057 208 1018 260 b 1029 385 1003 292 1029 332 b 858 526 1029 471 964 526 b 685 386 751 526 685 468 b 750 275 685 335 711 293 b 658 143 694 258 658 206 z m 786 369 b 857 424 786 400 810 424 b 926 371 903 424 926 400 b 857 318 926 340 901 318 b 786 369 811 318 786 339 z m 778 158 b 857 221 778 199 810 221 b 936 158 904 221 936 199 b 857 97 936 119 906 97 b 778 158 808 97 778 119 z "},"*":{"ha":597,"x_min":0,"x_max":0,"o":"m 125 782 b 233 760 168 767 196 764 b 157 681 204 736 182 717 l 97 593 l 185 533 l 247 615 b 296 713 267 640 286 675 b 349 615 307 685 321 654 l 407 533 l 494 593 l 438 681 b 363 760 415 715 393 735 b 471 782 393 763 429 767 l 569 817 l 532 917 l 438 886 b 339 835 390 871 364 853 b 351 944 346 865 351 900 l 351 1047 l 244 1047 l 244 944 b 257 835 244 900 249 868 b 160 886 229 856 206 871 l 67 917 l 28 817 z "},"⁂":{"ha":1347,"x_min":0,"x_max":0,"o":"m 500 782 b 608 760 542 767 578 763 b 532 681 579 736 560 715 l 472 593 l 560 533 l 622 615 b 671 713 647 653 663 683 b 724 615 682 685 696 654 l 782 533 l 869 593 l 813 681 b 738 760 785 715 767 736 b 846 782 768 763 804 767 l 944 817 l 907 917 l 813 886 b 714 835 765 871 739 853 b 726 944 721 865 726 900 l 726 1047 l 619 1047 l 619 944 b 632 835 619 900 626 868 b 535 886 604 853 579 868 l 442 917 l 403 817 z m 125 232 b 233 210 167 217 203 213 b 157 131 204 186 185 165 l 97 43 l 185 -17 l 247 65 b 296 163 272 103 288 133 b 349 65 307 135 319 103 l 407 -17 l 494 43 l 438 131 b 363 210 410 165 392 186 b 471 232 393 213 429 217 l 569 267 l 532 367 l 438 336 b 339 285 392 318 364 303 b 351 394 346 315 351 350 l 351 497 l 244 497 l 244 394 b 257 285 244 350 251 318 b 160 336 229 303 204 318 l 67 367 l 28 267 z m 875 232 b 983 210 917 217 953 213 b 907 131 954 186 935 165 l 847 43 l 935 -17 l 997 65 b 1046 163 1022 103 1038 133 b 1099 65 1057 135 1069 103 l 1157 -17 l 1244 43 l 1188 131 b 1113 210 1160 165 1142 186 b 1221 232 1143 213 1179 217 l 1319 267 l 1282 367 l 1188 336 b 1089 285 1142 318 1114 303 b 1101 394 1096 315 1101 350 l 1101 497 l 994 497 l 994 394 b 1007 285 994 350 1001 318 b 910 336 979 303 954 318 l 817 367 l 778 267 z "},"\\":{"ha":614,"x_min":0,"x_max":0,"o":"m 214 1025 l 0 1025 l 401 0 l 614 0 z "},"·":{"ha":511,"x_min":0,"x_max":0,"o":"m 257 240 b 422 404 347 240 422 317 b 257 571 422 493 346 571 b 89 404 165 571 89 496 b 257 240 89 315 165 240 z "},"•":{"ha":651,"x_min":0,"x_max":0,"o":"m 328 146 b 563 379 453 146 563 251 b 328 617 563 506 457 617 b 89 379 199 617 89 508 b 328 146 89 251 199 146 z "},":":{"ha":456,"x_min":0,"x_max":0,"o":"m 228 471 b 356 596 296 471 356 528 b 228 722 356 665 296 722 b 100 596 157 722 100 665 b 228 471 100 528 157 471 z m 228 -18 b 356 107 296 -18 356 39 b 228 233 356 176 296 233 b 100 107 157 233 100 176 b 228 -18 100 39 157 -18 z "},",":{"ha":428,"x_min":0,"x_max":0,"o":"m 342 71 b 206 233 342 167 286 233 b 86 106 133 233 86 182 b 201 -4 86 44 136 -4 b 242 4 217 -4 231 -1 b 118 -103 238 -53 188 -90 l 118 -179 b 342 71 249 -165 342 -62 z "},"…":{"ha":1178,"x_min":0,"x_max":0,"o":"m 214 -18 b 342 107 282 -18 342 39 b 214 233 342 176 282 233 b 86 107 143 233 86 176 b 214 -18 86 39 143 -18 z m 589 -18 b 717 107 657 -18 717 39 b 589 233 717 176 657 233 b 461 107 518 233 461 176 b 589 -18 461 39 518 -18 z m 964 -18 b 1092 107 1032 -18 1092 39 b 964 233 1092 176 1032 233 b 836 107 893 233 836 176 b 964 -18 836 39 893 -18 z "},"!":{"ha":486,"x_min":0,"x_max":0,"o":"m 329 307 b 372 796 354 421 372 608 l 372 1028 l 114 1028 l 114 796 b 153 307 114 614 129 426 z m 242 -18 b 369 107 310 -18 369 39 b 242 233 369 176 310 233 b 114 107 171 233 114 176 b 242 -18 114 39 171 -18 z "},"¡":{"ha":486,"x_min":0,"x_max":0,"o":"m 242 1046 b 114 921 171 1046 114 989 b 242 794 114 851 171 794 b 369 921 310 794 369 851 b 242 1046 369 989 310 1046 z m 153 721 b 114 232 129 601 114 414 l 114 0 l 372 0 l 372 232 b 329 721 372 419 354 607 z "},"#":{"ha":1036,"x_min":0,"x_max":0,"o":"m 93 444 l 51 244 l 176 244 l 129 0 l 342 0 l 389 244 l 526 244 l 479 0 l 692 0 l 739 244 l 899 244 l 939 444 l 778 444 l 806 582 l 943 582 l 985 782 l 844 782 l 892 1028 l 679 1028 l 632 782 l 494 782 l 543 1028 l 331 1028 l 282 782 l 143 782 l 101 582 l 243 582 l 217 444 z m 429 444 l 456 582 l 593 582 l 565 444 z "},".":{"ha":428,"x_min":0,"x_max":0,"o":"m 214 -18 b 342 107 282 -18 342 39 b 214 233 342 176 282 233 b 86 107 143 233 86 176 b 214 -18 86 39 143 -18 z "},"?":{"ha":801,"x_min":0,"x_max":0,"o":"m 463 279 l 463 308 b 581 461 463 376 517 418 b 758 738 660 515 758 586 b 410 1047 758 932 628 1047 b 43 689 193 1047 43 901 l 267 689 b 404 847 267 786 319 847 b 528 722 483 847 528 801 b 421 567 528 654 478 613 b 269 308 350 510 269 443 l 269 279 z m 372 -18 b 500 107 442 -18 500 40 b 372 233 500 175 442 233 b 244 107 301 233 244 176 b 372 -18 244 39 301 -18 z "},"¿":{"ha":801,"x_min":0,"x_max":0,"o":"m 429 1047 b 301 922 360 1047 301 989 b 429 796 301 854 360 796 b 557 922 500 796 557 853 b 429 1047 557 990 500 1047 z m 339 750 l 339 721 b 221 568 339 653 285 611 b 43 292 142 514 43 443 b 392 -18 43 97 174 -18 b 758 340 608 -18 758 128 l 535 340 b 397 182 535 243 482 182 b 274 307 318 182 274 228 b 381 463 274 375 324 417 b 532 721 451 519 532 586 l 532 750 z "},"\"":{"ha":703,"x_min":0,"x_max":0,"o":"m 303 904 b 204 1038 318 999 254 1038 b 94 904 143 1038 79 999 l 146 589 l 253 589 z m 608 904 b 510 1038 624 999 560 1038 b 400 904 449 1038 385 999 l 451 589 l 558 589 z "},"'":{"ha":397,"x_min":0,"x_max":0,"o":"m 303 904 b 204 1038 318 999 254 1038 b 94 904 143 1038 79 999 l 146 589 l 253 589 z "},";":{"ha":456,"x_min":0,"x_max":0,"o":"m 228 471 b 356 596 296 471 356 528 b 228 722 356 665 296 722 b 100 596 157 722 100 665 b 228 471 100 528 157 471 z m 356 71 b 219 233 356 167 300 233 b 100 106 147 233 100 182 b 215 -4 100 44 150 -4 b 256 4 231 -4 244 -1 b 132 -103 251 -53 201 -90 l 132 -179 b 356 71 263 -165 356 -62 z "},"/":{"ha":614,"x_min":0,"x_max":0,"o":"m 213 0 l 614 1025 l 400 1025 l 0 0 z "},"_":{"ha":779,"x_min":0,"x_max":0,"o":"m 83 -174 l 696 -174 l 696 -22 l 83 -22 z "},"{":{"ha":533,"x_min":0,"x_max":0,"o":"m 63 442 b 217 300 160 442 217 394 l 217 32 b 419 -158 217 -85 300 -158 l 526 -158 l 526 6 l 467 6 b 411 74 433 6 411 26 l 411 329 b 272 525 411 438 363 496 b 411 721 363 554 411 613 l 411 976 b 467 1044 411 1024 433 1044 l 526 1044 l 526 1208 l 419 1208 b 217 1018 300 1208 217 1135 l 217 750 b 63 608 217 656 160 608 z "},"}":{"ha":533,"x_min":0,"x_max":0,"o":"m 114 -158 b 317 32 233 -158 317 -85 l 317 300 b 471 442 317 394 374 442 l 471 608 b 317 750 374 608 317 656 l 317 1018 b 114 1208 317 1135 233 1208 l 7 1208 l 7 1044 l 67 1044 b 122 976 100 1044 122 1024 l 122 721 b 261 525 122 613 171 554 b 122 329 171 496 122 438 l 122 74 b 67 6 122 26 100 6 l 7 6 l 7 -158 z "},"[":{"ha":468,"x_min":0,"x_max":0,"o":"m 301 6 l 301 1044 l 461 1044 l 461 1208 l 107 1208 l 107 -158 l 461 -158 l 461 6 z "},"]":{"ha":468,"x_min":0,"x_max":0,"o":"m 7 -158 l 361 -158 l 361 1208 l 7 1208 l 7 1044 l 167 1044 l 167 6 l 7 6 z "},"(":{"ha":474,"x_min":0,"x_max":0,"o":"m 474 -294 b 272 403 336 -110 272 156 b 474 1100 272 683 353 938 l 310 1100 b 56 403 138 921 56 654 b 310 -294 56 118 157 -136 z "},")":{"ha":474,"x_min":0,"x_max":0,"o":"m 164 -294 b 418 403 317 -136 418 118 b 164 1100 418 654 336 921 l 0 1100 b 201 403 121 938 201 683 b 0 -294 201 156 138 -110 z "},"—":{"ha":1744,"x_min":0,"x_max":0,"o":"m 97 278 l 1647 278 l 1647 467 l 97 467 z "},"–":{"ha":1400,"x_min":0,"x_max":0,"o":"m 97 278 l 1303 278 l 1303 467 l 97 467 z "},"-":{"ha":642,"x_min":0,"x_max":0,"o":"m 83 281 l 558 281 l 558 469 l 83 469 z "},"«":{"ha":1111,"x_min":0,"x_max":0,"o":"m 360 0 l 639 0 l 335 347 l 639 694 l 360 694 l 56 347 z m 776 0 l 1056 0 l 751 347 l 1056 694 l 776 694 l 472 347 z "},"»":{"ha":1111,"x_min":0,"x_max":0,"o":"m 335 0 l 639 347 l 335 694 l 56 694 l 360 347 l 56 0 z m 751 0 l 1056 347 l 751 694 l 472 694 l 776 347 l 472 0 z "},"‹":{"ha":694,"x_min":0,"x_max":0,"o":"m 360 0 l 639 0 l 335 347 l 639 694 l 360 694 l 56 347 z "},"›":{"ha":694,"x_min":0,"x_max":0,"o":"m 335 0 l 639 347 l 335 694 l 56 694 l 360 347 l 56 0 z "},"„":{"ha":726,"x_min":0,"x_max":0,"o":"m 332 57 b 206 210 332 149 282 210 b 89 92 136 210 89 161 b 192 -18 89 24 133 -18 b 232 -10 207 -18 221 -15 b 118 -117 232 -67 186 -104 l 118 -193 b 332 57 246 -179 332 -79 z m 638 57 b 511 210 638 149 588 210 b 394 92 442 210 394 161 b 497 -18 394 24 439 -18 b 538 -10 513 -18 526 -15 b 424 -117 538 -67 492 -104 l 424 -193 b 638 57 551 -179 638 -79 z "},"“":{"ha":726,"x_min":0,"x_max":0,"o":"m 332 763 b 229 872 332 831 288 872 b 189 864 214 872 200 869 b 303 971 189 921 235 958 l 303 1047 b 89 797 175 1033 89 933 b 215 644 89 706 139 644 b 332 763 285 644 332 693 z m 638 763 b 535 872 638 831 593 872 b 494 864 519 872 506 869 b 608 971 494 921 540 958 l 608 1047 b 394 797 481 1033 394 933 b 521 644 394 706 444 644 b 638 763 590 644 638 693 z "},"”":{"ha":726,"x_min":0,"x_max":0,"o":"m 332 894 b 206 1047 332 986 282 1047 b 89 929 136 1047 89 999 b 192 819 89 861 133 819 b 232 828 207 819 221 822 b 118 721 232 771 186 733 l 118 644 b 332 894 246 658 332 758 z m 638 894 b 511 1047 638 986 588 1047 b 394 929 442 1047 394 999 b 497 819 394 861 439 819 b 538 828 513 819 526 822 b 424 721 538 771 492 733 l 424 644 b 638 894 551 658 638 758 z "},"‘":{"ha":421,"x_min":0,"x_max":0,"o":"m 332 763 b 229 872 332 831 288 872 b 189 864 214 872 200 869 b 303 971 189 921 235 958 l 303 1047 b 89 797 175 1033 89 933 b 215 644 89 706 139 644 b 332 763 285 644 332 693 z "},"’":{"ha":421,"x_min":0,"x_max":0,"o":"m 332 894 b 206 1047 332 986 282 1047 b 89 929 136 1047 89 999 b 192 819 89 861 133 819 b 232 828 207 819 221 822 b 118 721 232 771 186 733 l 118 644 b 332 894 246 658 332 758 z "},"‚":{"ha":421,"x_min":0,"x_max":0,"o":"m 332 57 b 206 210 332 149 282 210 b 89 92 136 210 89 161 b 192 -18 89 24 133 -18 b 232 -10 207 -18 221 -15 b 118 -117 232 -67 186 -104 l 118 -193 b 332 57 246 -179 332 -79 z "}," ":{"ha":368,"x_min":0,"x_max":0,"o":""},"¢":{"ha":818,"x_min":0,"x_max":0,"o":"m 318 -1 l 497 -1 l 497 153 b 768 440 650 181 756 290 l 553 440 b 418 338 539 372 493 338 b 272 514 326 338 272 403 b 421 689 272 621 331 689 b 553 586 494 689 538 656 l 768 586 b 497 874 756 742 656 847 l 497 1028 l 318 1028 l 318 869 b 57 514 161 831 57 694 b 318 157 57 328 157 194 z "},"¤":{"ha":1061,"x_min":0,"x_max":0,"o":"m 840 72 l 978 213 l 869 319 b 922 514 903 376 922 443 b 869 711 922 586 903 653 l 978 818 l 840 958 l 731 850 b 532 906 672 885 604 906 b 331 850 458 906 390 885 l 221 958 l 83 818 l 193 710 b 142 514 161 651 142 585 b 193 321 142 443 161 378 l 83 213 l 221 72 l 331 181 b 532 125 390 146 458 125 b 731 181 604 125 672 146 z m 726 514 b 532 321 726 408 638 321 b 338 514 424 321 338 408 b 532 710 338 622 422 710 b 726 514 639 710 726 622 z "},"$":{"ha":846,"x_min":0,"x_max":0,"o":"m 365 -129 l 493 -129 l 493 -12 b 804 310 683 14 804 135 b 533 590 804 467 722 551 l 493 599 l 493 844 b 571 731 543 826 571 788 l 788 731 b 493 1043 788 906 675 1021 l 493 1158 l 365 1158 l 365 1043 b 50 729 178 1021 50 897 b 328 426 50 565 142 464 l 365 419 l 365 179 b 258 299 296 192 258 232 l 35 299 b 365 -17 35 119 163 0 z m 269 738 b 365 847 269 794 304 833 l 365 625 b 269 738 297 643 269 678 z m 586 288 b 493 185 586 238 551 201 l 493 393 b 586 288 554 381 586 347 z "},"€":{"ha":826,"x_min":0,"x_max":0,"o":"m 604 -17 b 776 1 663 -17 710 -11 l 776 218 b 617 193 719 201 667 193 b 358 313 494 193 407 231 l 657 313 l 657 468 l 314 468 b 313 514 313 483 313 499 b 314 550 313 526 313 539 l 657 550 l 657 706 l 353 706 b 638 836 403 796 497 836 b 763 818 671 836 722 829 l 763 1031 b 625 1047 718 1042 669 1047 b 118 706 372 1047 186 922 l 17 706 l 17 550 l 92 550 b 90 511 90 538 90 525 b 92 468 90 496 90 482 l 17 468 l 17 313 l 119 313 b 604 -17 186 103 364 -17 z "},"ƒ":{"ha":926,"x_min":0,"x_max":0,"o":"m 101 568 l 101 368 l 333 368 l 288 -4 b 185 -93 281 -64 239 -93 l 71 -93 l 71 -299 l 181 -299 b 514 -39 404 -299 494 -201 l 564 368 l 842 368 l 842 568 l 588 568 l 608 733 b 708 840 618 811 653 840 l 856 840 l 856 1046 l 719 1046 b 379 747 524 1046 401 929 l 357 568 z "},"£":{"ha":938,"x_min":0,"x_max":0,"o":"m 558 0 b 888 354 765 0 888 136 l 671 354 b 521 210 668 269 639 210 l 306 210 b 393 375 371 243 393 306 b 386 435 393 394 390 415 l 629 435 l 629 597 l 336 597 b 318 703 325 632 318 667 b 468 847 318 789 381 847 b 614 713 553 847 613 807 l 838 713 b 476 1047 838 919 683 1047 b 101 699 253 1047 101 893 b 117 597 101 665 108 631 l 39 597 l 39 435 l 169 435 b 179 365 175 411 179 388 b 33 210 179 268 121 210 l 33 0 z "},"¥":{"ha":967,"x_min":0,"x_max":0,"o":"m 311 542 l 154 542 l 154 386 l 375 386 l 375 319 l 154 319 l 154 164 l 375 164 l 375 0 l 588 0 l 588 164 l 808 164 l 808 319 l 588 319 l 588 386 l 808 386 l 808 542 l 654 542 l 939 1028 l 683 1028 l 482 643 l 283 1028 l 28 1028 z "},"+":{"ha":917,"x_min":0,"x_max":0,"o":"m 111 557 l 111 379 l 369 379 l 369 119 l 547 119 l 547 379 l 806 379 l 806 557 l 547 557 l 547 815 l 369 815 l 369 557 z "},"−":{"ha":917,"x_min":0,"x_max":0,"o":"m 111 557 l 111 379 l 806 379 l 806 557 z "},"×":{"ha":917,"x_min":0,"x_max":0,"o":"m 247 806 l 121 681 l 333 468 l 119 254 l 246 129 l 460 343 l 671 131 l 797 256 l 585 468 l 797 681 l 671 806 l 460 594 z "},"÷":{"ha":917,"x_min":0,"x_max":0,"o":"m 460 572 b 574 685 519 572 574 624 b 460 799 574 747 519 799 b 343 685 396 799 343 747 b 460 572 343 624 396 572 z m 111 514 l 111 336 l 806 336 l 806 514 z m 460 50 b 574 164 519 50 574 103 b 460 278 574 226 519 278 b 343 164 396 278 343 226 b 460 50 343 103 396 50 z "},"=":{"ha":917,"x_min":0,"x_max":0,"o":"m 111 664 l 111 486 l 806 486 l 806 664 z m 111 358 l 111 181 l 806 181 l 806 358 z "},"≠":{"ha":917,"x_min":0,"x_max":0,"o":"m 142 25 l 342 25 l 426 181 l 806 181 l 806 358 l 524 358 l 593 486 l 806 486 l 806 664 l 690 664 l 775 819 l 575 819 l 490 664 l 111 664 l 111 486 l 393 486 l 324 358 l 111 358 l 111 181 l 226 181 z "},">":{"ha":917,"x_min":0,"x_max":0,"o":"m 806 236 l 806 464 l 111 706 l 111 497 l 601 350 l 111 203 l 111 -6 z "},"<":{"ha":917,"x_min":0,"x_max":0,"o":"m 806 203 l 315 350 l 806 497 l 806 706 l 111 464 l 111 236 l 806 -6 z "},"≥":{"ha":917,"x_min":0,"x_max":0,"o":"m 806 406 l 806 633 l 111 861 l 111 653 l 601 519 l 111 386 l 111 178 z m 111 178 l 111 0 l 806 0 l 806 178 z "},"≤":{"ha":917,"x_min":0,"x_max":0,"o":"m 806 386 l 315 519 l 806 653 l 806 861 l 111 633 l 111 406 l 806 178 z m 111 0 l 806 0 l 806 178 l 111 178 z "},"±":{"ha":917,"x_min":0,"x_max":0,"o":"m 111 654 l 111 476 l 369 476 l 369 272 l 547 272 l 547 476 l 806 476 l 806 654 l 547 654 l 547 857 l 369 857 l 369 654 z m 111 0 l 806 0 l 806 178 l 111 178 z "},"≈":{"ha":917,"x_min":0,"x_max":0,"o":"m 644 704 b 582 617 644 656 633 617 b 317 710 504 617 444 710 b 111 458 190 710 111 597 l 272 458 b 335 540 272 499 283 540 b 600 447 408 540 471 447 b 806 704 726 447 806 560 z m 644 413 b 582 325 644 364 633 325 b 317 418 504 325 444 418 b 111 167 190 418 111 306 l 272 167 b 335 249 272 207 283 249 b 600 156 408 249 471 156 b 806 413 726 156 806 268 z "},"~":{"ha":917,"x_min":0,"x_max":0,"o":"m 644 565 b 582 478 644 517 633 478 b 317 571 504 478 444 571 b 111 319 190 571 111 458 l 272 319 b 335 401 272 360 283 401 b 600 308 408 401 471 308 b 806 565 726 308 806 421 z "},"¬":{"ha":917,"x_min":0,"x_max":0,"o":"m 804 558 l 75 558 l 75 378 l 603 378 l 603 132 l 804 132 z "},"∅":{"ha":1210,"x_min":0,"x_max":0,"o":"m 599 -17 b 1101 515 881 -17 1101 217 b 1026 803 1101 622 1074 721 l 1154 919 l 1058 1025 l 936 915 b 600 1046 849 997 732 1046 b 99 515 314 1046 99 817 b 176 226 99 408 126 308 l 56 117 l 153 11 l 267 114 b 599 -17 354 32 469 -17 z m 307 515 b 600 847 307 713 425 847 b 788 781 675 847 739 824 l 333 368 b 307 515 315 411 307 461 z m 599 182 b 414 249 525 182 463 206 l 868 660 b 893 515 885 618 893 568 b 599 182 893 321 775 182 z "},"∞":{"ha":1282,"x_min":0,"x_max":0,"o":"m 56 404 b 358 101 56 229 183 101 b 642 258 478 101 556 144 b 924 101 726 144 804 101 b 1226 404 1100 101 1226 229 b 924 708 1226 581 1100 708 b 642 550 804 708 726 665 b 358 708 556 665 478 708 b 56 404 182 708 56 581 z m 247 404 b 358 524 247 476 292 524 b 517 404 433 524 490 482 b 358 285 490 328 432 285 b 247 404 292 285 247 333 z m 765 404 b 924 524 792 482 849 524 b 1035 404 990 524 1035 475 b 924 285 1035 333 990 285 b 765 404 850 285 792 328 z "},"∫":{"ha":678,"x_min":0,"x_max":0,"o":"m 164 -17 b 447 282 332 -17 447 100 l 447 747 b 531 851 447 825 475 851 l 636 851 l 636 1046 l 514 1046 b 231 747 346 1046 231 929 l 231 282 b 147 178 231 204 203 178 l 42 178 l 42 -17 z "},"∆":{"ha":1003,"x_min":0,"x_max":0,"o":"m 933 0 l 933 189 l 600 1028 l 403 1028 l 69 189 l 69 0 z m 479 660 b 501 724 481 663 496 701 b 522 658 506 706 514 681 l 711 189 l 294 189 z "},"∏":{"ha":1006,"x_min":0,"x_max":0,"o":"m 332 0 l 332 819 l 674 819 l 674 0 l 899 0 l 899 1028 l 107 1028 l 107 0 z "},"∑":{"ha":829,"x_min":0,"x_max":0,"o":"m 760 0 l 760 208 l 326 208 l 624 521 l 332 819 l 760 819 l 760 1028 l 69 1028 l 69 804 l 356 521 l 69 225 l 69 0 z "},"√":{"ha":1049,"x_min":0,"x_max":0,"o":"m 272 0 l 481 0 l 807 835 l 1021 835 l 1021 1029 l 661 1029 l 378 278 l 222 693 l 0 693 z "},"µ":{"ha":836,"x_min":0,"x_max":0,"o":"m 288 -333 l 260 46 b 376 -18 285 8 321 -18 b 540 78 456 -18 497 21 l 554 0 l 756 0 l 756 694 l 542 694 l 542 333 b 413 172 542 219 504 172 b 286 336 325 172 286 222 l 286 694 l 72 694 l 72 -333 z "},"∂":{"ha":915,"x_min":0,"x_max":0,"o":"m 64 364 b 447 -18 64 113 244 -18 b 851 436 651 -18 851 115 b 613 1028 851 617 788 839 l 339 1028 b 592 700 474 914 551 790 b 428 743 544 735 476 743 b 64 364 232 743 64 606 z m 279 363 b 457 553 279 474 351 553 b 633 363 560 553 633 474 b 457 172 633 251 560 172 b 279 363 353 172 279 251 z "},"%":{"ha":1374,"x_min":0,"x_max":0,"o":"m 592 768 b 314 1047 592 932 476 1047 b 36 768 151 1047 36 932 b 314 489 36 604 151 489 b 592 768 476 489 592 604 z m 1181 1025 l 971 1025 l 190 0 l 400 0 z m 425 768 b 314 650 425 699 381 650 b 203 768 247 650 203 699 b 314 886 203 838 247 886 b 425 768 381 886 425 838 z m 1338 261 b 1060 540 1338 425 1222 540 b 782 261 897 540 782 425 b 1060 -18 782 97 897 -18 b 1338 261 1222 -18 1338 97 z m 1171 261 b 1060 143 1171 192 1126 143 b 949 261 993 143 949 192 b 1060 379 949 331 993 379 b 1171 261 1126 379 1171 331 z "},"‰":{"ha":1985,"x_min":0,"x_max":0,"o":"m 592 768 b 314 1047 592 932 476 1047 b 36 768 151 1047 36 932 b 314 489 36 604 151 489 b 592 768 476 489 592 604 z m 1181 1025 l 971 1025 l 190 0 l 400 0 z m 425 768 b 314 650 425 699 381 650 b 203 768 247 650 203 699 b 314 886 203 838 247 886 b 425 768 381 886 425 838 z m 1338 261 b 1060 540 1338 425 1222 540 b 782 261 897 540 782 425 b 1060 -18 782 97 897 -18 b 1338 261 1222 -18 1338 97 z m 1949 261 b 1671 540 1949 425 1833 540 b 1393 261 1508 540 1393 425 b 1671 -18 1393 97 1508 -18 b 1949 261 1833 -18 1949 97 z m 1171 261 b 1060 143 1171 192 1126 143 b 949 261 993 143 949 192 b 1060 379 949 331 993 379 b 1171 261 1126 379 1171 331 z m 1782 261 b 1671 143 1782 192 1738 143 b 1560 261 1604 143 1560 192 b 1671 379 1560 331 1604 379 b 1782 261 1738 379 1782 331 z "},"↑":{"ha":1217,"x_min":0,"x_max":0,"o":"m 196 571 l 529 904 l 529 0 l 688 0 l 688 904 l 1021 571 l 1133 683 l 608 1208 l 83 683 z "},"↗":{"ha":1196,"x_min":0,"x_max":0,"o":"m 369 869 l 840 869 l 83 111 l 196 0 l 953 757 l 953 286 l 1113 286 l 1113 1028 l 369 1028 z "},"→":{"ha":1404,"x_min":0,"x_max":0,"o":"m 683 843 l 1017 510 l 83 508 l 83 351 l 1017 351 l 683 18 l 796 -94 l 1321 429 l 796 954 z "},"↘":{"ha":1193,"x_min":0,"x_max":0,"o":"m 951 744 l 951 272 l 194 1028 l 83 917 l 839 161 l 368 161 l 368 1 l 1110 0 l 1110 743 z "},"↓":{"ha":1215,"x_min":0,"x_max":0,"o":"m 1022 467 l 688 132 l 688 1065 l 529 1065 l 529 133 l 197 467 l 83 353 l 607 -172 l 1132 353 z "},"↙":{"ha":1197,"x_min":0,"x_max":0,"o":"m 828 158 l 356 158 l 1114 919 l 1003 1031 l 244 271 l 244 742 l 85 742 l 83 0 l 826 0 z "},"←":{"ha":1406,"x_min":0,"x_max":0,"o":"m 722 8 l 389 340 l 1322 340 l 1322 499 l 389 499 l 722 833 l 610 944 l 83 418 l 610 -106 z "},"↖":{"ha":1160,"x_min":0,"x_max":0,"o":"m 83 1028 l 83 285 l 242 283 l 242 756 l 965 0 l 1076 111 l 354 867 l 825 867 l 825 1026 z "},"↔":{"ha":1631,"x_min":0,"x_max":0,"o":"m 83 394 l 514 -36 l 514 188 l 378 314 l 1253 314 l 1117 188 l 1117 -36 l 1547 394 l 1117 821 l 1117 596 l 1250 472 l 942 472 l 942 474 l 706 474 l 706 472 l 381 471 l 514 596 l 514 821 z "},"↕":{"ha":1024,"x_min":0,"x_max":0,"o":"m 510 -269 l 940 161 l 717 161 l 590 25 l 590 900 l 717 764 l 940 764 l 510 1194 l 83 764 l 308 764 l 432 897 l 432 589 l 431 589 l 431 353 l 432 353 l 433 28 l 308 161 l 83 161 z "},"●":{"ha":1242,"x_min":0,"x_max":0,"o":"m 621 -75 b 1158 463 917 -75 1158 165 b 621 1000 1158 758 915 1000 b 83 463 325 1000 83 760 b 621 -75 83 167 324 -75 z "},"○":{"ha":1242,"x_min":0,"x_max":0,"o":"m 621 -75 b 1158 463 917 -75 1158 165 b 621 1000 1158 758 915 1000 b 83 463 325 1000 83 760 b 621 -75 83 167 324 -75 z m 621 64 b 222 463 401 64 222 243 b 621 861 222 682 401 861 b 1019 463 839 861 1019 681 b 621 64 1019 243 840 64 z "},"◊":{"ha":922,"x_min":0,"x_max":0,"o":"m 839 493 l 563 986 l 360 986 l 83 493 l 360 0 l 563 0 z m 624 493 l 461 189 l 299 493 l 461 797 z "},"■":{"ha":1153,"x_min":0,"x_max":0,"o":"m 83 0 l 1069 0 l 1069 986 l 83 986 z "},"□":{"ha":1153,"x_min":0,"x_max":0,"o":"m 83 0 l 1069 0 l 1069 986 l 83 986 z m 914 831 l 914 156 l 239 156 l 239 831 z "},"▲":{"ha":1342,"x_min":0,"x_max":0,"o":"m 83 0 l 1258 0 l 671 986 z "},"△":{"ha":1342,"x_min":0,"x_max":0,"o":"m 672 992 l 83 6 l 1258 6 z m 322 138 l 671 721 l 1019 138 z "},"☮":{"ha":1242,"x_min":0,"x_max":0,"o":"m 621 -75 b 1158 463 917 -75 1158 165 b 621 1000 1158 758 915 1000 b 83 463 325 1000 83 760 b 621 -75 83 167 324 -75 z m 222 463 b 558 856 222 661 368 826 l 558 526 l 253 311 b 222 463 233 358 222 410 z m 1019 463 b 989 311 1019 410 1008 358 l 683 526 l 683 856 b 1019 463 872 825 1019 660 z m 318 204 l 558 374 l 558 69 b 318 204 463 83 378 133 z m 683 374 l 924 204 b 683 69 864 133 779 83 z "},"✓":{"ha":950,"x_min":0,"x_max":0,"o":"m 357 10 l 894 656 l 763 769 l 351 274 l 175 461 l 56 335 z "},"@":{"ha":1343,"x_min":0,"x_max":0,"o":"m 369 317 b 600 115 369 190 456 115 b 811 228 697 115 789 164 b 997 115 836 154 901 115 b 1274 481 1168 115 1274 254 b 679 1047 1274 807 1022 1047 b 69 439 329 1047 69 789 b 679 -171 69 88 328 -171 b 1008 -75 797 -171 911 -137 l 951 43 b 679 -43 865 -12 771 -43 b 206 439 406 -43 206 160 b 679 919 206 717 404 919 b 1138 481 947 919 1138 738 b 1029 240 1138 338 1093 240 b 968 315 988 240 968 264 l 968 499 b 682 781 968 679 865 781 b 385 546 501 781 385 688 l 546 546 b 672 633 546 603 590 633 b 779 539 742 633 779 601 l 779 529 l 603 515 b 369 317 447 503 369 428 z m 567 325 b 682 392 567 365 594 385 l 781 400 l 781 367 b 654 258 781 299 733 258 b 567 325 594 258 567 279 z "},"&":{"ha":1069,"x_min":0,"x_max":0,"o":"m 803 0 l 1050 0 l 874 194 b 957 504 928 278 957 382 l 747 504 b 728 356 747 449 740 399 l 567 535 b 743 804 689 617 743 700 b 471 1046 743 946 631 1046 b 190 796 310 1046 190 939 b 289 569 190 715 217 653 b 64 279 146 504 64 400 b 447 -18 64 104 221 -18 b 746 64 564 -18 665 11 z m 392 797 b 471 878 392 847 422 878 b 546 796 518 878 546 847 b 464 649 546 733 518 682 b 392 797 414 707 392 747 z m 292 303 b 392 457 292 367 325 418 l 619 204 b 476 167 579 179 532 167 b 292 303 363 167 292 218 z "},"¶":{"ha":864,"x_min":0,"x_max":0,"o":"m 35 747 b 304 465 35 574 138 465 l 351 465 l 351 -136 l 532 -136 l 532 1028 l 304 1028 b 35 747 139 1028 35 918 z m 729 -139 l 729 1025 l 665 1025 l 665 -139 z "},"§":{"ha":686,"x_min":0,"x_max":0,"o":"m 647 535 b 471 732 647 632 599 700 l 342 764 b 264 829 293 776 264 796 b 346 892 264 867 294 892 b 426 813 397 892 426 860 l 629 813 b 356 1047 629 953 517 1047 b 65 833 189 1047 65 957 b 156 682 65 763 92 715 b 39 493 86 644 39 575 b 215 296 39 396 88 326 l 344 265 b 422 200 393 254 422 232 b 340 138 422 163 392 138 b 260 217 289 138 260 169 l 57 217 b 331 -18 57 76 169 -18 b 621 196 497 -18 621 72 b 531 346 621 267 594 314 b 647 535 600 385 647 454 z m 449 514 b 343 417 449 460 415 417 b 238 514 271 417 238 460 b 343 613 238 568 271 613 b 449 514 415 613 449 568 z "},"©":{"ha":1143,"x_min":0,"x_max":0,"o":"m 572 -18 b 1088 515 860 -18 1088 218 b 572 1047 1088 811 860 1047 b 56 515 283 1047 56 813 b 572 -18 56 218 283 -18 z m 572 107 b 186 515 354 107 186 285 b 572 922 186 744 354 922 b 957 515 790 922 957 746 b 572 107 957 285 789 107 z m 308 515 b 575 243 308 351 413 243 b 833 461 718 243 824 332 l 675 461 b 575 385 664 410 631 385 b 467 515 508 385 467 433 b 576 644 467 593 511 644 b 675 568 631 644 663 621 l 833 568 b 571 786 824 703 722 786 b 308 515 418 786 308 672 z "},"®":{"ha":725,"x_min":0,"x_max":0,"o":"m 364 435 b 669 740 539 435 669 565 b 364 1046 669 915 539 1046 b 56 740 190 1046 56 913 b 364 435 56 567 189 435 z m 364 493 b 118 740 222 493 118 597 b 364 988 118 882 222 988 b 607 740 504 988 607 883 b 364 493 607 597 504 493 z m 299 572 l 299 694 l 383 694 l 446 572 l 514 572 l 440 711 b 510 814 483 729 510 768 b 381 918 510 879 458 918 l 236 918 l 236 572 z m 443 807 b 379 751 443 774 419 751 l 299 751 l 299 858 l 379 858 b 443 807 421 858 443 842 z "},"℗":{"ha":725,"x_min":0,"x_max":0,"o":"m 364 435 b 669 740 539 435 669 565 b 364 1046 669 915 539 1046 b 56 740 190 1046 56 913 b 364 435 56 567 189 435 z m 364 493 b 118 740 222 493 118 597 b 364 988 118 882 222 988 b 607 740 504 988 607 883 b 364 493 607 597 504 493 z m 314 567 l 314 664 l 392 664 b 525 793 474 664 525 714 b 392 910 525 863 471 910 l 251 910 l 251 567 z m 314 850 l 392 850 b 458 789 435 850 458 829 b 392 724 458 747 435 724 l 314 724 z "},"™":{"ha":914,"x_min":0,"x_max":0,"o":"m 167 956 l 167 631 l 244 631 l 244 956 l 375 956 l 375 1028 l 36 1028 l 36 956 z m 493 631 l 493 871 l 594 631 l 657 631 l 758 874 l 758 631 l 831 631 l 831 1028 l 758 1028 l 626 707 l 493 1028 l 421 1028 l 421 631 z "},"°":{"ha":475,"x_min":0,"x_max":0,"o":"m 433 851 b 238 1047 433 964 350 1047 b 42 851 125 1047 42 964 b 238 656 42 739 125 656 b 433 851 350 656 433 739 z m 319 851 b 238 765 319 799 286 765 b 156 851 188 765 156 800 b 238 939 156 903 188 939 b 319 851 286 939 319 904 z "},"|":{"ha":489,"x_min":0,"x_max":0,"o":"m 163 -125 l 326 -125 l 326 1094 l 163 1094 z "},"¦":{"ha":489,"x_min":0,"x_max":0,"o":"m 326 1094 l 163 1094 l 163 617 l 326 617 z m 163 -125 l 326 -125 l 326 353 l 163 353 z "},"†":{"ha":494,"x_min":0,"x_max":0,"o":"m 185 408 l 310 408 l 310 769 l 467 769 l 467 889 l 310 889 l 310 1028 l 185 1028 l 185 889 l 28 889 l 28 769 l 185 769 z "},"‡":{"ha":499,"x_min":0,"x_max":0,"o":"m 185 408 l 310 408 l 310 547 l 471 547 l 471 667 l 310 667 l 310 769 l 467 769 l 467 889 l 310 889 l 310 1028 l 185 1028 l 185 889 l 28 889 l 28 769 l 185 769 l 185 667 l 32 667 l 32 547 l 185 547 z "},"℮":{"ha":1082,"x_min":0,"x_max":0,"o":"m 83 490 b 556 -12 83 192 272 -12 b 942 208 729 -12 874 72 l 889 228 b 558 43 831 118 701 43 b 222 206 411 43 294 103 l 222 456 l 997 456 b 999 529 999 476 999 503 b 542 986 999 815 810 986 b 83 490 275 986 83 783 z m 222 758 b 542 931 290 861 403 931 b 860 783 674 931 790 878 l 860 506 l 222 506 z "},"№":{"ha":1822,"x_min":0,"x_max":0,"o":"m 1760 718 b 1421 1047 1760 907 1615 1047 b 1079 718 1225 1047 1079 907 b 1421 394 1079 536 1228 394 b 1760 718 1617 394 1760 531 z m 329 0 l 329 653 l 763 0 l 985 0 l 985 1028 l 763 1028 l 763 374 l 329 1028 l 107 1028 l 107 0 z m 1563 717 b 1421 581 1563 639 1501 581 b 1276 717 1339 581 1276 640 b 1421 857 1276 803 1333 857 b 1563 717 1507 857 1563 803 z m 1732 154 l 1732 338 l 1107 338 l 1107 154 z "},"^":{"ha":744,"x_min":0,"x_max":0,"o":"m 264 556 l 372 858 l 481 556 l 661 556 l 476 1028 l 268 1028 l 83 556 z "},"′":{"ha":275,"x_min":0,"x_max":0,"o":"m 217 946 b 136 1047 225 1015 181 1047 b 56 946 92 1047 47 1015 l 89 674 l 183 674 z "},"̈":{"ha":633,"x_min":0,"x_max":0,"o":"m 179 1081 b 286 1189 238 1081 286 1129 b 179 1296 286 1246 238 1296 b 72 1189 121 1296 72 1247 b 179 1081 72 1128 119 1081 z m 454 1081 b 561 1189 513 1081 561 1129 b 454 1296 561 1246 513 1296 b 347 1189 396 1296 347 1247 b 454 1081 347 1128 394 1081 z "},"̇":{"ha":338,"x_min":0,"x_max":0,"o":"m 168 1081 b 282 1194 231 1081 282 1132 b 168 1308 282 1256 231 1308 b 56 1194 107 1308 56 1257 b 168 1081 56 1131 106 1081 z "},"̀":{"ha":433,"x_min":0,"x_max":0,"o":"m 378 1071 l 261 1301 l 69 1301 l 224 1071 z "},"́":{"ha":433,"x_min":0,"x_max":0,"o":"m 364 1301 l 172 1301 l 56 1071 l 210 1071 z "},"̋":{"ha":697,"x_min":0,"x_max":0,"o":"m 357 1301 l 186 1301 l 56 1071 l 203 1071 z m 601 1301 l 431 1301 l 300 1071 l 447 1071 z "},"̂":{"ha":592,"x_min":0,"x_max":0,"o":"m 217 1071 l 296 1217 l 375 1071 l 536 1071 l 399 1315 l 193 1315 l 56 1071 z "},"̌":{"ha":592,"x_min":0,"x_max":0,"o":"m 193 1071 l 399 1071 l 536 1315 l 375 1315 l 296 1169 l 217 1315 l 56 1315 z "},"̆":{"ha":650,"x_min":0,"x_max":0,"o":"m 421 1304 b 326 1196 421 1236 386 1196 b 231 1304 265 1196 231 1235 l 79 1304 b 326 1057 79 1151 174 1057 b 571 1304 475 1057 571 1153 z "},"̊":{"ha":494,"x_min":0,"x_max":0,"o":"m 247 1046 b 443 1239 360 1046 443 1129 b 247 1433 443 1349 358 1433 b 51 1239 136 1433 51 1349 b 247 1046 51 1126 133 1046 z m 247 1154 b 165 1242 197 1154 165 1189 b 247 1325 165 1292 199 1325 b 329 1242 296 1325 329 1290 b 247 1154 329 1189 297 1154 z "},"̃":{"ha":649,"x_min":0,"x_max":0,"o":"m 181 1075 b 229 1160 181 1128 193 1160 b 443 1074 282 1160 338 1074 b 589 1299 542 1074 604 1146 l 469 1299 b 419 1213 469 1249 456 1213 b 206 1299 360 1213 307 1299 b 61 1074 104 1299 44 1210 z "},"̄":{"ha":569,"x_min":0,"x_max":0,"o":"m 83 1107 l 486 1107 l 486 1251 l 83 1251 z "},"̒":{"ha":318,"x_min":0,"x_max":0,"o":"m 263 1193 b 178 1282 263 1243 229 1282 b 139 1272 163 1282 149 1279 b 251 1325 142 1315 178 1335 l 251 1390 b 56 1221 119 1408 56 1325 b 161 1099 56 1147 97 1099 b 263 1193 222 1099 263 1136 z "},"̦":{"ha":318,"x_min":0,"x_max":0,"o":"m 263 -162 b 157 -40 263 -89 221 -40 b 56 -135 96 -40 56 -78 b 140 -224 56 -185 89 -224 b 179 -214 156 -224 169 -221 b 67 -267 176 -257 140 -276 l 67 -332 b 263 -162 199 -350 263 -267 z "},"̧":{"ha":386,"x_min":0,"x_max":0,"o":"m 42 -296 b 154 -322 72 -311 106 -322 b 331 -176 253 -322 331 -271 b 210 -58 331 -90 265 -58 b 160 -67 190 -58 174 -61 l 201 13 l 201 58 l 142 60 l 72 -85 l 92 -139 b 160 -128 111 -132 132 -128 b 221 -176 199 -128 221 -146 b 143 -233 221 -210 197 -233 b 42 -207 104 -233 76 -222 z "},"̸":{"ha":811,"x_min":0,"x_max":0,"o":"m 756 767 l 574 767 l 56 -61 l 247 -61 z "},"´":{"ha":433,"x_min":0,"x_max":0,"o":"m 364 1301 l 172 1301 l 56 1071 l 210 1071 z "},"˘":{"ha":650,"x_min":0,"x_max":0,"o":"m 421 1304 b 326 1196 421 1236 386 1196 b 231 1304 265 1196 231 1235 l 79 1304 b 326 1057 79 1151 174 1057 b 571 1304 475 1057 571 1153 z "},"ˇ":{"ha":592,"x_min":0,"x_max":0,"o":"m 193 1071 l 399 1071 l 536 1315 l 375 1315 l 296 1169 l 217 1315 l 56 1315 z "},"¸":{"ha":386,"x_min":0,"x_max":0,"o":"m 42 -296 b 154 -322 72 -311 106 -322 b 331 -176 253 -322 331 -271 b 210 -58 331 -90 265 -58 b 160 -67 190 -58 174 -61 l 201 13 l 201 58 l 142 60 l 72 -85 l 92 -139 b 160 -128 111 -132 132 -128 b 221 -176 199 -128 221 -146 b 143 -233 221 -210 197 -233 b 42 -207 104 -233 76 -222 z "},"ˆ":{"ha":592,"x_min":0,"x_max":0,"o":"m 217 1071 l 296 1217 l 375 1071 l 536 1071 l 399 1315 l 193 1315 l 56 1071 z "},"¨":{"ha":633,"x_min":0,"x_max":0,"o":"m 179 1081 b 286 1189 238 1081 286 1129 b 179 1296 286 1246 238 1296 b 72 1189 121 1296 72 1247 b 179 1081 72 1128 119 1081 z m 454 1081 b 561 1189 513 1081 561 1129 b 454 1296 561 1246 513 1296 b 347 1189 396 1296 347 1247 b 454 1081 347 1128 394 1081 z "},"˙":{"ha":338,"x_min":0,"x_max":0,"o":"m 168 1081 b 282 1194 231 1081 282 1132 b 168 1308 282 1256 231 1308 b 56 1194 107 1308 56 1257 b 168 1081 56 1131 106 1081 z "},"`":{"ha":433,"x_min":0,"x_max":0,"o":"m 378 1071 l 261 1301 l 69 1301 l 224 1071 z "},"˝":{"ha":697,"x_min":0,"x_max":0,"o":"m 357 1301 l 186 1301 l 56 1071 l 203 1071 z m 601 1301 l 431 1301 l 300 1071 l 447 1071 z "},"¯":{"ha":569,"x_min":0,"x_max":0,"o":"m 83 1107 l 486 1107 l 486 1251 l 83 1251 z "},"˛":{"ha":363,"x_min":0,"x_max":0,"o":"m 188 0 b 63 -161 101 -32 63 -97 b 222 -310 63 -242 124 -310 b 304 -294 253 -310 279 -306 l 304 -158 b 261 -168 289 -165 274 -168 b 203 -112 225 -168 203 -143 b 314 0 203 -74 236 -26 z "},"˚":{"ha":494,"x_min":0,"x_max":0,"o":"m 247 1046 b 443 1239 360 1046 443 1129 b 247 1433 443 1349 358 1433 b 51 1239 136 1433 51 1349 b 247 1046 51 1126 133 1046 z m 247 1154 b 165 1242 197 1154 165 1189 b 247 1325 165 1292 199 1325 b 329 1242 296 1325 329 1290 b 247 1154 329 1189 297 1154 z "},"˜":{"ha":649,"x_min":0,"x_max":0,"o":"m 181 1075 b 229 1160 181 1128 193 1160 b 443 1074 282 1160 338 1074 b 589 1299 542 1074 604 1146 l 469 1299 b 419 1213 469 1249 456 1213 b 206 1299 360 1213 307 1299 b 61 1074 104 1299 44 1210 z "},"":{"ha":2415,"x_min":0,"x_max":0,"o":"m 83 0 l 383 0 l 383 972 l 83 972 z m 446 689 l 746 689 l 746 972 l 446 972 z m 807 0 l 1108 0 l 1108 972 l 807 972 z m 1169 689 l 1469 689 l 1469 972 l 1169 972 z m 1531 0 l 1832 0 l 1832 972 l 1531 972 z m 1893 689 l 2193 689 l 2193 972 l 1893 972 z m 1893 343 l 2193 343 l 2193 628 l 1893 628 z "},"ı":{"ha":375,"x_min":0,"x_max":0,"o":"m 81 0 l 294 0 l 294 694 l 81 694 z "},"ȷ":{"ha":375,"x_min":0,"x_max":0,"o":"m -75 -339 b 33 -356 -25 -354 3 -356 b 294 -96 200 -356 294 -251 l 294 694 l 81 694 l 81 -68 b 13 -158 81 -129 65 -158 b -40 -150 -8 -158 -19 -157 z "},"̵":{"ha":889,"x_min":0,"x_max":0,"o":"m 3 925 l 3 801 l 522 801 l 522 925 z "},"̷":{"ha":401,"x_min":0,"x_max":0,"o":"m 28 407 l 381 575 l 381 724 l 28 556 z "}}}
